<svg width="120" height="80" viewBox="0 0 120 80" fill="none" xmlns="http://www.w3.org/2000/svg">
<g id="clients/ apple">
<path id="Vector" d="M50.1409 54.1023V34.0219H49.9963L42.186 54.1023H39.1486L31.3383 34.0219H31.1937V54.1023H27.5778V26.8822H32.2061L40.595 48.5988H40.7396L49.1285 26.8822H53.9015V54.1023H50.1409ZM74.2951 54.1023H70.5346V50.6812H70.39C69.3775 53.0611 67.3526 54.3998 64.4599 54.3998C60.2654 54.3998 57.8066 51.5737 57.8066 46.9626V34.1707H61.7118V46.2189C61.7118 49.1938 63.1582 50.83 65.7616 50.83C68.6543 50.83 70.2453 48.7475 70.2453 45.6239V34.1707H74.1505L74.2951 54.1023ZM84.9982 33.8732C89.4819 33.8732 92.2299 36.4018 92.3746 40.1204H88.7587C88.4694 38.1867 87.1677 36.9968 84.9982 36.9968C82.8286 36.9968 81.3823 38.038 81.3823 39.6742C81.3823 40.8641 82.2501 41.7566 84.275 42.2028L87.3123 42.9465C91.2175 43.839 92.6639 45.4752 92.6639 48.3013C92.6639 51.8712 89.4819 54.3998 84.9982 54.3998C80.2252 54.3998 77.3325 52.0199 77.0432 48.1526H80.9484C81.2376 50.235 82.684 51.2762 84.9982 51.2762C87.3123 51.2762 88.7587 50.235 88.7587 48.5988C88.7587 47.2601 88.0355 46.5164 86.0106 46.0702L82.9733 45.3264C79.3574 44.434 77.6217 42.6491 77.6217 39.6742C77.6217 36.2531 80.5145 33.8732 84.9982 33.8732ZM95.5566 28.9646C95.5566 27.6259 96.569 26.5847 97.8708 26.5847C99.1725 26.5847 100.185 27.6259 100.185 28.9646C100.185 30.3033 99.1725 31.3445 97.8708 31.3445C96.569 31.3445 95.5566 30.3033 95.5566 28.9646ZM95.8458 34.1707H99.751V54.1023H95.8458V34.1707ZM116.239 41.0129C115.806 38.9305 114.359 37.1455 111.756 37.1455C108.718 37.1455 106.694 39.8229 106.694 43.9877C106.694 48.3013 108.718 50.83 111.756 50.83C114.215 50.83 115.661 49.4913 116.239 47.1114H120C119.566 51.2762 116.384 54.2511 111.756 54.2511C106.26 54.2511 102.788 50.3837 102.788 43.9877C102.788 37.7405 106.26 33.7244 111.756 33.7244C116.673 33.7244 119.566 36.9968 120 40.8641L116.239 41.0129ZM15.573 29.5596C14.5605 30.7496 12.9696 31.7908 11.3786 31.642C11.0893 29.8571 11.9571 28.0722 12.8249 27.031C13.8374 25.6923 15.573 24.7998 17.0194 24.7998C17.164 26.436 16.5854 28.2209 15.573 29.5596ZM17.0194 31.9395C17.8872 31.9395 20.4906 32.237 22.2262 34.9144C22.0816 35.0631 19.1889 36.848 19.1889 40.5666C19.1889 45.029 22.9494 46.5164 22.9494 46.5164C22.9494 46.6651 22.3709 48.5988 21.0692 50.6812C19.9121 52.4661 18.6104 54.2511 16.7301 54.2511C14.8498 54.2511 14.2713 53.0611 12.1017 53.0611C9.93221 53.0611 9.20903 54.2511 7.4734 54.2511C5.59313 54.2511 4.14677 52.3174 2.98969 50.5325C0.530881 46.8139 -1.34938 40.1204 1.25406 35.6581C2.41115 33.4269 4.72532 31.9395 7.03949 31.9395C8.91975 31.9395 10.6554 33.2782 11.6678 33.2782C12.6803 33.2782 14.7052 31.7908 17.0194 31.9395Z" fill="#0A0A0A"/>
</g>
</svg>
