<svg width="120" height="80" viewBox="0 0 120 80" fill="none" xmlns="http://www.w3.org/2000/svg">
<g id="clients/ castle lite">
<g id="Vector">
<path d="M18.2608 15.3392L16.9804 14.4909C16.2722 14.0216 15.6729 13.629 15.6456 13.611C15.5821 13.5749 14.6468 15.7002 14.7104 15.7409C14.7331 15.7544 15.5548 16.2959 16.531 16.9412L18.3016 18.1144L18.3062 19.1523C18.3062 19.7209 18.3198 20.6324 18.338 21.1694L18.3652 22.1531H19.5774V17.1081L21.4707 16.3591C22.5104 15.9484 23.3685 15.619 23.3775 15.628C23.3821 15.6326 22.6874 16.1244 21.8248 16.711L20.2584 17.7895V22.1531H20.8487V18.1144L22.6647 16.9231C23.6636 16.2643 24.4808 15.7183 24.4808 15.7048C24.4808 15.6912 24.2765 15.2084 24.0222 14.6308L23.5637 13.5884L23.0325 13.9313C22.7419 14.1164 22.1426 14.5089 21.7022 14.8068L20.8941 15.3392V12H18.2608V15.3392ZM19.8952 14.4683C20.0451 15.3438 20.1676 16.0793 20.1676 16.1019C20.1676 16.1244 20.1404 16.1515 20.1132 16.165C20.0814 16.1786 19.9452 16.2282 19.818 16.2824L19.5774 16.3771L19.582 14.5586C19.5865 13.5613 19.5956 12.7761 19.6047 12.8122C19.6137 12.8483 19.7454 13.5929 19.8952 14.4683ZM16.7716 16.1289C17.5752 16.4268 17.8295 16.5035 17.8612 16.4583C17.8794 16.4268 17.9838 16.2598 18.0928 16.0838L18.2835 15.7679L18.2971 16.5982C18.3016 17.054 18.2971 17.4376 18.2835 17.4511C18.2698 17.4646 17.6751 17.0856 16.9577 16.6118C16.2359 16.1334 15.6638 15.7454 15.6865 15.7454C15.7047 15.7454 16.195 15.9168 16.7716 16.1289Z" fill="#0A0A0A"/>
<path d="M12.0725 15.9394C12.1588 17.1533 12.2405 18.7687 12.2178 18.7687C12.1997 18.7687 11.5459 18.3942 10.765 17.9384C9.97951 17.4782 9.33935 17.1081 9.33481 17.1127C9.30757 17.1397 8.04086 19.3283 8.03178 19.3644C8.02724 19.3824 8.65378 19.757 9.43015 20.1947C10.2065 20.6324 10.8558 21.0069 10.8785 21.025C10.9012 21.0475 10.2792 21.3815 9.49825 21.7695L8.08172 22.4735L8.15891 22.5908C8.22701 22.6901 9.38475 24.2604 9.43469 24.3146C9.44377 24.3281 10.1974 23.9716 11.11 23.5294L12.7717 22.7217L12.3722 22.3246L11.1872 22.9157C10.5334 23.2406 9.99767 23.4978 9.99767 23.4843C9.99767 23.4753 10.37 23.1549 10.8285 22.7803C11.2825 22.4013 11.673 22.0764 11.6957 22.0583C11.7184 22.0403 11.6503 21.8688 11.5459 21.6748C11.4414 21.4853 11.3688 21.3183 11.3779 21.3048C11.3915 21.2957 11.5459 21.3679 11.7229 21.4717C11.9045 21.571 12.0589 21.6567 12.068 21.6567C12.0771 21.6567 12.0861 21.3363 12.0861 20.9392V20.2263L10.7241 19.4456C9.97497 19.0169 9.36659 18.6559 9.37567 18.6514C9.38475 18.6424 9.99767 18.859 10.7377 19.1297L12.0816 19.6261H12.6991C13.1576 19.6261 13.312 19.6126 13.312 19.5674C13.3165 19.4276 13.7161 16.8148 13.7388 16.7923C13.7524 16.7787 13.766 16.8058 13.766 16.8509C13.766 16.9637 13.9385 19.0936 13.9749 19.3869L13.9976 19.6261H14.5832L14.5787 19.3644C14.5787 18.9447 14.3744 15.9304 14.3517 15.9033C14.3381 15.8898 13.8795 15.8311 13.3302 15.7679C12.7853 15.7093 12.2723 15.6461 12.1906 15.6371L12.0498 15.619L12.0725 15.9394Z" fill="#0A0A0A"/>
<path d="M25.9382 15.7499C25.3253 15.8221 24.8213 15.8898 24.8122 15.8988C24.7941 15.9168 24.5716 19.211 24.5716 19.4772V19.6261H24.8622C25.1437 19.6261 25.1573 19.6216 25.18 19.4998C25.1891 19.4321 25.2481 18.7913 25.3026 18.0738C25.3616 17.3247 25.4206 16.8058 25.4388 16.8554C25.4569 16.9006 25.5614 17.5459 25.6658 18.2814L25.861 19.6261H27.0914L28.4262 19.1297C29.1617 18.859 29.7701 18.6424 29.7792 18.6514C29.7882 18.6604 29.1844 19.0214 28.4307 19.4501L27.0687 20.2308V20.9438C27.0687 21.3363 27.0823 21.6567 27.105 21.6567C27.1232 21.6567 27.1777 21.6297 27.2276 21.5981C27.2775 21.562 27.441 21.4672 27.5863 21.386L27.8587 21.2371L27.6407 21.6297C27.4501 21.9726 27.4319 22.0313 27.4909 22.0764C27.7633 22.284 29.1935 23.4888 29.1799 23.4978C29.1753 23.5069 28.6305 23.2451 27.9767 22.9202L26.7827 22.3246L26.5965 22.5096C26.4966 22.6089 26.424 22.6991 26.4331 22.7127C26.4966 22.7668 29.6702 24.3236 29.7065 24.3101C29.7519 24.292 31.064 22.5276 31.064 22.478C31.064 22.46 30.4284 22.1351 29.6475 21.756C28.8166 21.3544 28.2491 21.0521 28.2764 21.0295C28.2991 21.0069 28.9392 20.6414 29.702 20.2127C30.4647 19.7886 31.1004 19.423 31.1185 19.4095C31.1594 19.3689 29.8518 17.1172 29.7973 17.1307C29.7746 17.1352 29.1299 17.5098 28.3626 17.9565C27.5953 18.4077 26.9597 18.7642 26.9461 18.7507C26.9189 18.7281 27.0414 16.4809 27.0959 15.8898C27.1141 15.7363 27.105 15.6145 27.0868 15.6145C27.0641 15.619 26.5466 15.6822 25.9382 15.7499Z" fill="#0A0A0A"/>
<path d="M12.5856 21.8282L13.4482 22.6405V29.6438H16.0361V22.672L16.8987 21.8147V20.1676H16.0361V21.025H15.1735V20.1676H14.3108V21.025H13.4482V20.1676H12.5856V21.8282ZM15.909 22.1666L15.5821 22.4915L15.5775 23.2587C15.573 24.1251 15.6002 24.1566 15.3278 22.9744L15.2098 22.469H14.279L14.1292 23.1323C14.0475 23.5023 13.9658 23.8408 13.9431 23.8904C13.9249 23.94 13.9068 23.6513 13.9068 23.2361L13.9022 22.4915L13.5753 22.1666L13.2484 21.8372H16.2359L15.909 22.1666ZM14.9919 26.1241H14.4924V23.3715H14.9919V26.1241Z" fill="#0A0A0A"/>
<path d="M22.2561 21.8282L22.6874 22.2298L23.1187 22.6359V29.6438H25.7066V22.672L26.5693 21.8147V20.1676H25.7066V21.025H24.844V20.1676H23.9814V21.025H23.1187V20.1676H22.2561V21.8282ZM25.5795 22.1666L25.2526 22.4915L25.2481 23.2587C25.2435 24.1251 25.2708 24.1566 24.9984 22.9744L24.8803 22.469H23.9541L23.7725 23.2451L23.5955 24.0258L23.5818 23.2542L23.5728 22.487L23.2776 22.1982C23.1142 22.0358 22.9825 21.8914 22.9825 21.8733C22.9825 21.8553 23.6409 21.8372 24.4445 21.8372H25.9064L25.5795 22.1666ZM24.6624 26.1241H24.163V23.3715H24.6624V26.1241Z" fill="#0A0A0A"/>
<path d="M38.7369 21.8553C36.9617 22.0854 35.6859 22.7352 34.8823 23.8182C33.8199 25.2532 33.6701 27.2612 34.5146 28.818C34.7506 29.2512 35.014 29.5897 35.4271 29.9868C36.2716 30.7855 37.2023 31.2232 38.469 31.4082C38.9685 31.4804 40.5348 31.4804 40.9162 31.4082C41.3702 31.327 41.8696 31.1691 41.8696 31.1149C41.8742 31.0878 41.9286 30.7629 42.0013 30.3974C42.1102 29.8198 42.1193 29.7341 42.0558 29.7612C41.2068 30.1041 40.3623 30.2124 39.5995 30.077C38.8686 29.9462 38.3964 29.707 37.8924 29.2106C37.62 28.9444 37.5247 28.809 37.3385 28.4209C36.9844 27.6899 36.9435 27.4824 36.9481 26.3948C36.9481 25.5916 36.9617 25.4247 37.048 25.1133C37.3431 24.0483 37.9469 23.4121 38.8958 23.1684C39.2499 23.0782 40.1761 23.0736 40.6892 23.1639C41.1114 23.2406 41.6017 23.394 41.9105 23.5475C42.0149 23.6016 42.1148 23.6422 42.1239 23.6332C42.142 23.6106 42.0512 21.9997 42.024 21.9771C42.0149 21.9681 41.7788 21.932 41.4973 21.9004C40.7119 21.8056 39.2999 21.7831 38.7369 21.8553Z" fill="#0A0A0A"/>
<path d="M56.1802 21.8372C54.3641 22.0674 53.2654 23.0782 53.2654 24.5222C53.2654 25.2396 53.4743 25.7721 53.9465 26.255C54.3914 26.7062 54.859 26.9815 56.1257 27.532C57.2562 28.0239 57.6285 28.272 57.8238 28.6601C58.1098 29.2287 57.851 29.8018 57.2018 30.0455C56.3255 30.3703 55.1178 30.1853 53.842 29.531C53.5515 29.3821 53.4607 29.355 53.4743 29.4092C53.4834 29.4498 53.5605 29.8695 53.6513 30.3388C53.7376 30.8081 53.8148 31.1961 53.8239 31.2097C53.8647 31.2458 54.5231 31.3631 55.0679 31.4263C55.8215 31.512 57.2018 31.5165 57.7375 31.4263C58.6274 31.2819 59.2902 30.9705 59.826 30.4335C60.3844 29.8785 60.6205 29.3144 60.6205 28.5157C60.6205 27.6448 60.2891 27.0221 59.4855 26.3858C59.0496 26.0384 58.5502 25.7676 57.6694 25.4111C56.5207 24.9463 56.2483 24.7839 56.0803 24.45C55.9033 24.1115 55.9986 23.6558 56.3028 23.4031C56.5707 23.182 56.9157 23.0872 57.4424 23.0872C58.0235 23.0917 58.4548 23.1955 59.0587 23.4798L59.4855 23.6828L59.4764 22.9293L59.4628 22.1757L59.0768 22.0719C58.8634 22.0177 58.5093 21.941 58.2823 21.9004C57.7829 21.8192 56.6297 21.7831 56.1802 21.8372Z" fill="#0A0A0A"/>
<path d="M46.487 21.9591C46.4597 22.0042 43.1363 31.1239 43.1045 31.2322C43.0864 31.3089 43.1636 31.3135 44.2305 31.3135C45.2066 31.3135 45.3701 31.3044 45.3519 31.2503C45.2884 31.0923 45.2702 30.6366 45.3156 30.3658C45.3428 30.2034 45.4791 29.7115 45.6243 29.2693L45.8831 28.4706L47.2633 28.4796L48.6481 28.4932L49.4744 31.3135H50.9863C51.8217 31.3135 52.4936 31.2999 52.4845 31.2774C52.0986 30.5283 52.0759 30.4651 50.3052 25.0276L49.2973 21.9275H47.899C47.1317 21.9275 46.496 21.941 46.487 21.9591ZM47.7945 25.6322C48.0352 26.4355 48.2395 27.1394 48.2531 27.1936L48.2803 27.2973H47.2724C46.487 27.2973 46.269 27.2838 46.2827 27.2387C46.2963 27.2116 46.5369 26.4986 46.8184 25.6593C47.0953 24.82 47.336 24.1431 47.3451 24.1521C47.3541 24.1612 47.5584 24.829 47.7945 25.6322Z" fill="#0A0A0A"/>
<path d="M60.9973 22.8616C60.9202 23.3534 60.8611 23.7596 60.8702 23.7686C60.8747 23.7731 60.9883 23.737 61.1245 23.6874C61.6602 23.4753 62.0461 23.4166 62.9269 23.4166H63.7532V31.3135H66.4228L66.3502 31.0969C66.2821 30.9073 66.273 30.4741 66.2594 27.1484L66.2458 23.4166H67.1266C68.0437 23.4166 68.3206 23.4572 68.6384 23.6422L68.7792 23.7235L68.9472 22.8751C69.038 22.4103 69.1106 22.0132 69.1106 21.9997C69.1106 21.9861 67.3172 21.9726 65.1243 21.9726H61.1381L60.9973 22.8616Z" fill="#0A0A0A"/>
<path d="M70.7905 22.0132C70.7905 22.0358 70.8268 22.1396 70.8722 22.2479C70.9448 22.4329 70.9494 22.7803 70.963 26.8777L70.9766 31.3135H76.5474L76.5746 31.1871C76.5882 31.1194 76.6427 30.8126 76.6927 30.5012C76.7426 30.1898 76.7926 29.892 76.8062 29.8379C76.8289 29.7476 76.8198 29.7386 76.7199 29.7792C76.6563 29.8018 76.3885 29.8514 76.1161 29.892C75.594 29.9732 73.9777 29.9913 73.6281 29.9236L73.4465 29.892V26.3046C73.4465 22.8119 73.451 22.6179 73.5827 22.0944L73.6144 21.9726H72.2025C71.4261 21.9726 70.7905 21.9907 70.7905 22.0132Z" fill="#0A0A0A"/>
<path d="M78.2545 22.0719C78.4134 22.6134 78.4179 22.7803 78.4179 27.0762V31.3135H84.3156L84.361 31.0743C84.3883 30.9479 84.4382 30.6456 84.4791 30.411C84.5199 30.1763 84.5608 29.9281 84.5744 29.865L84.5971 29.7476L84.3701 29.8063C83.9342 29.9191 83.2441 29.9732 82.2998 29.9687C81.7777 29.9642 81.2465 29.9462 81.1193 29.9281L80.8923 29.892L80.8787 28.4796L80.8696 27.0717H83.3213V25.9436L82.1091 25.9346L80.8923 25.921L80.8787 24.5763L80.8696 23.2316L82.2862 23.2451C83.6391 23.2587 83.7163 23.2632 83.9252 23.3579L84.1385 23.4572V21.9726H78.2272L78.2545 22.0719Z" fill="#0A0A0A"/>
<path d="M16.5627 23.0646C16.5491 23.2722 16.4856 24.6169 16.422 26.0564C16.3584 27.4959 16.2949 28.8903 16.2813 29.1565L16.2495 29.6438H18.3834L18.4061 28.9986C18.4288 28.4796 18.4515 28.3081 18.5332 28.0915C18.6603 27.7666 18.9463 27.4643 19.3186 27.2748L19.5774 27.1394L19.8226 27.2658C20.5309 27.6358 20.7579 28.1006 20.7579 29.2016V29.6438H22.8917V29.5175C22.8917 29.4498 22.8191 27.893 22.7328 26.0564C22.6466 24.2198 22.5739 22.7127 22.5739 22.7036C22.5739 22.6991 22.3923 22.6946 22.1653 22.6946H21.7567V23.5069H20.8487V22.6946H20.0314V23.5069H19.1234V22.6946H18.3062V23.5069H17.3981V22.6946H16.59L16.5627 23.0646ZM22.1653 24.1476C22.1653 24.2288 22.1971 24.9102 22.238 25.6638C22.2743 26.4174 22.297 27.0446 22.2879 27.0582C22.2743 27.0672 22.2289 26.9318 22.188 26.7513C22.1471 26.5663 22.0109 25.9977 21.8884 25.4833L21.6568 24.5447H17.5389L17.498 24.6891C17.4753 24.7703 17.3255 25.3344 17.1666 25.9391C16.9441 26.7829 16.8715 27.004 16.8624 26.8732C16.8533 26.7784 16.8806 26.1196 16.9169 25.4066C16.9577 24.6981 16.9895 24.089 16.9895 24.0574C16.9895 24.0168 17.5389 24.0032 19.5774 24.0032H22.1653V24.1476Z" fill="#0A0A0A"/>
<path d="M9.07602 25.19C8.37229 26.1331 8.0908 26.5212 8.0908 26.5392C8.0908 26.5483 8.72189 26.8687 9.49825 27.2522C10.2746 27.6358 10.9057 27.9607 10.9057 27.9742C10.9057 27.9878 10.7059 28.1096 10.4608 28.245C10.2201 28.3803 9.56636 28.7459 9.01246 29.0617L8 29.6258L8.64016 30.7313C8.9943 31.336 9.29849 31.8504 9.31665 31.873C9.33935 31.8911 10.0022 31.5346 10.7922 31.0698C11.5822 30.605 12.236 30.2305 12.2405 30.2395C12.2451 30.2485 12.2042 30.9525 12.1497 31.8098C12.0952 32.6672 12.0589 33.3712 12.0634 33.3802C12.0771 33.3937 14.3244 33.1546 14.3517 33.1365C14.3698 33.1185 14.5333 30.7313 14.5378 30.3974V30.1853H13.9158L13.8614 30.9615C13.8023 31.7241 13.7388 32.3288 13.7251 32.2385C13.7206 32.2114 13.6525 31.7467 13.5708 31.2006L13.421 30.2079L12.9488 30.1808L12.9397 28.2811L12.9261 26.3768L11.1872 25.533L9.45285 24.6846L9.07602 25.19ZM11.446 26.2324L12.8262 26.9228L12.1043 27.3334C11.7093 27.5591 11.3779 27.7351 11.3688 27.726C11.3552 27.717 11.4324 27.5546 11.5368 27.3695C11.6367 27.1845 11.7229 27.0221 11.7229 27.0085C11.7229 26.9995 11.3597 26.6927 10.9193 26.3272C9.98859 25.56 9.96135 25.5375 10.0204 25.542C10.0476 25.542 10.6878 25.8533 11.446 26.2324ZM12.4857 28.9309L12.4721 29.2513L10.9148 29.8289C10.0567 30.1447 9.37567 30.3794 9.40291 30.3523C9.48009 30.2756 12.3767 28.615 12.4403 28.6105C12.4857 28.606 12.4948 28.6872 12.4857 28.9309Z" fill="#0A0A0A"/>
<path d="M27.9676 25.533L26.256 26.3723L26.2288 30.1628L25.9927 30.1763C25.7112 30.1944 25.752 30.0815 25.5931 31.2006C25.4751 32.049 25.4388 32.2385 25.4161 32.2114C25.407 32.2024 25.3616 31.7421 25.3162 31.1871L25.239 30.1853H24.617V30.3297C24.6215 30.5779 24.7941 33.1275 24.8077 33.1365C24.8349 33.1591 27.0778 33.3937 27.0959 33.3802C27.1005 33.3712 27.0687 32.7349 27.0187 31.9678C26.9688 31.1961 26.937 30.4967 26.9416 30.4064L26.9552 30.2395L28.3808 31.0743C29.1617 31.5301 29.82 31.8911 29.8427 31.8685C29.9562 31.7557 31.1503 29.6258 31.114 29.6032C31.0913 29.5897 30.4375 29.2197 29.6611 28.7865C28.8848 28.3533 28.2491 27.9832 28.2491 27.9697C28.2491 27.9562 28.8848 27.6358 29.6566 27.2567C30.4329 26.8732 31.064 26.5528 31.064 26.5347C31.064 26.5031 29.8155 24.82 29.7383 24.7433C29.6929 24.7027 29.3024 24.8741 27.9676 25.533ZM29.1572 25.5555C29.1572 25.5645 28.7712 25.8894 28.2945 26.282C27.8224 26.6746 27.4319 26.9995 27.4319 27.004C27.4319 27.0085 27.5227 27.1755 27.6317 27.3786C27.7406 27.5816 27.8224 27.7486 27.8087 27.7486C27.7951 27.7486 27.4546 27.5636 27.0551 27.3334L26.3332 26.9183L27.7089 26.2324C29.0028 25.5826 29.1572 25.5149 29.1572 25.5555ZM28.3853 29.5446C29.1481 29.9778 29.7928 30.3523 29.8155 30.3749C29.8654 30.42 29.5839 30.3207 27.8859 29.6935L26.6828 29.2467L26.6555 28.5518L26.8281 28.6511C26.9234 28.7052 27.6226 29.1068 28.3853 29.5446Z" fill="#0A0A0A"/>
<path d="M18.3062 30.9118L16.4901 32.1031C15.4913 32.7575 14.674 33.3035 14.674 33.317C14.674 33.3486 15.573 35.3792 15.5957 35.4063C15.6093 35.4153 16.2086 35.0363 16.926 34.567L18.2381 33.7096L18.2517 35.3747L18.2608 37.0443H20.8941L20.9031 35.3702L20.9168 33.6961L22.2289 34.5625C22.9508 35.0363 23.5546 35.4108 23.5728 35.3882C23.6091 35.3476 24.4808 33.3666 24.4808 33.326C24.4808 33.308 23.6636 32.7575 22.6647 32.0986L20.8487 30.8983V30.1853H19.6228L19.6137 31.0472L19.6001 31.9091L17.7205 32.6492C16.6853 33.0553 15.8318 33.3847 15.8227 33.3757C15.8136 33.3666 16.5037 32.8838 17.3527 32.3017L18.8919 31.2458L18.8964 30.7133V30.1853H18.3062V30.9118ZM22.188 32.3965C22.9008 32.8703 23.482 33.2629 23.482 33.2764C23.482 33.2854 23.4275 33.2764 23.3594 33.2493C22.7601 33.0237 21.3935 32.5318 21.3572 32.5318C21.3345 32.5318 21.23 32.6717 21.1256 32.8477C21.0212 33.0192 20.9168 33.1726 20.8941 33.1861C20.8668 33.2042 20.8487 32.9154 20.8487 32.3784C20.8487 31.9181 20.8577 31.5391 20.8714 31.5391C20.885 31.5391 21.4752 31.9272 22.188 32.3965ZM19.6183 34.5038C19.6183 35.6184 19.6001 36.3088 19.5774 36.2546C19.5093 36.1057 18.9872 32.9199 19.0235 32.8883C19.0644 32.8432 19.4957 32.6717 19.5683 32.6717C19.6092 32.6672 19.6228 33.0643 19.6183 34.5038Z" fill="#0A0A0A"/>
<path d="M28.181 35.2032C28.1492 35.289 18.8555 65.7031 18.8237 65.8205L18.7965 65.9243H36.9027L39.1274 58.6366L36.5213 58.623L33.9153 58.614L33.9425 58.5102C33.9561 58.4561 35.418 53.6638 37.1933 47.8608C38.9639 42.0622 40.4168 37.2925 40.4168 37.2699C40.4168 37.2384 40.1398 37.2293 39.6404 37.2338L38.864 37.2474L35.6224 47.8517C33.8426 53.6819 32.3671 58.4877 32.3444 58.5238C32.2944 58.605 31.3818 58.6501 31.3818 58.5689C31.3818 58.5418 32.9845 53.2757 34.9459 46.8635C36.9072 40.4467 38.5099 35.1897 38.5099 35.1761C38.5099 35.1626 36.1899 35.1491 33.3568 35.1491C29.2752 35.1491 28.1946 35.1626 28.181 35.2032Z" fill="#0A0A0A"/>
<path d="M40.5212 65.9017L45.6743 65.9152C48.5119 65.9197 50.8364 65.9197 50.841 65.9107C50.8501 65.9062 52.9612 59.0066 55.5355 50.5818C58.1098 42.157 60.2255 35.2348 60.2346 35.2032C60.2482 35.1626 59.1994 35.1491 55.0906 35.1491H49.9239L40.5212 65.9017Z" fill="#0A0A0A"/>
<path d="M61.7737 42.4367L64.8111 42.4503C67.2083 42.4593 67.8439 42.4728 67.8257 42.518C67.8076 42.5676 60.7885 65.5317 60.7068 65.7979L60.6704 65.9243H70.9993L74.5543 54.3001C76.5065 47.9104 78.1228 42.6308 78.1455 42.5676L78.1909 42.4593H84.1612L85.2645 38.8358C85.8683 36.8458 86.3632 35.2032 86.3632 35.1807C86.3632 35.1626 81.3327 35.1491 75.1808 35.1491H64.0029L61.7737 42.4367Z" fill="#0A0A0A"/>
<path d="M90.1179 35.3612C89.9545 35.9072 80.8106 65.816 80.7924 65.8656C80.7743 65.9107 82.8037 65.9243 90.8398 65.9243H100.914L102.027 62.2782L103.144 58.6366L99.5297 58.614C96.2108 58.5915 95.9203 58.5869 95.9339 58.5193C95.9384 58.4741 96.1064 57.9101 96.3062 57.2603C96.5059 56.6105 96.6694 56.069 96.6694 56.06C96.6694 56.0509 98.6852 56.0419 101.155 56.0419H105.636L106.753 52.3732L107.875 48.7091L107.098 48.6956C106.676 48.6911 106.322 48.6911 106.313 48.7001C106.304 48.7046 105.94 49.8914 105.5 51.3264C105.06 52.7658 104.637 54.1421 104.565 54.3813L104.429 54.8235L99.9474 54.8326L95.4708 54.8461L94.3267 58.5915L93.8409 58.605C93.573 58.6095 93.3551 58.605 93.3551 58.5915C93.3551 58.5644 94.2222 55.708 94.6082 54.4761L94.7671 53.9662L99.2437 53.9571L103.72 53.9436L104.837 50.2885L105.959 46.6334L102.767 46.6198C101.01 46.6153 99.5751 46.5973 99.5751 46.5747C99.5796 46.5566 99.7158 46.0964 99.8838 45.5504L100.188 44.5576L104.987 44.5441C109.504 44.5351 109.786 44.5305 109.809 44.4538C109.913 44.1019 111.979 37.3467 111.997 37.2925C112.02 37.2338 111.929 37.2248 111.225 37.2248C110.785 37.2248 110.426 37.2338 110.426 37.2474C110.426 37.2654 109.137 41.4981 108.696 42.9196L108.56 43.3618L98.9758 43.3844L98.6171 44.5576C98.4174 45.2029 98.1949 45.9294 98.1222 46.1686L97.9815 46.6108H97.5093C97.246 46.6108 97.0326 46.5973 97.0326 46.5747C97.0326 46.5566 97.3141 45.6226 97.6546 44.499L98.2766 42.4593H107.861L108.624 39.9639C109.041 38.5966 109.545 36.9496 109.741 36.3088L110.099 35.1491H90.1815L90.1179 35.3612Z" fill="#0A0A0A"/>
<path d="M51.5538 66.8042L47.1771 66.8177L42.7958 66.8268L42.6278 67.3637C42.537 67.6616 42.4598 67.9233 42.4598 67.9504C42.4598 67.9865 43.9808 68 47.6129 68H52.7615L52.8977 67.5578C52.9749 67.3186 55.077 60.428 57.5786 52.2514C60.0757 44.0748 62.1324 37.3467 62.146 37.3015C62.1687 37.2293 62.1097 37.2248 61.3832 37.2248H60.5978L51.5538 66.8042Z" fill="#0A0A0A"/>
<path d="M86.6175 37.5948C86.5539 37.8024 86.1453 39.1471 85.7049 40.5866C85.2645 42.0261 84.8967 43.24 84.8831 43.2806C84.8604 43.3573 84.6788 43.3618 81.8685 43.3618H78.8765L78.7812 43.6641C78.7312 43.8356 77.1194 49.1062 75.199 55.3876L71.7076 66.8042L67.3218 66.8177C64.9109 66.8222 62.936 66.8358 62.936 66.8448C62.936 66.8538 62.8543 67.1201 62.7589 67.4314L62.5818 68H72.9198L72.9788 67.806C73.0106 67.7022 74.6224 62.4271 76.561 56.087L80.0842 44.5576L83.0761 44.5441L86.0726 44.5351L87.1124 41.1371C87.6799 39.2735 88.1838 37.6264 88.2292 37.482L88.3064 37.2248H86.731L86.6175 37.5948Z" fill="#0A0A0A"/>
<path d="M38.6688 63.3386C38.2239 64.8006 37.8016 66.1815 37.729 66.4071L37.5973 66.8268L21.0575 66.8493L20.885 67.4134C20.7896 67.7247 20.7125 67.982 20.7125 67.9865C20.7125 67.9955 24.7895 68 29.7701 68H38.8232L38.864 67.8511C38.9321 67.621 41.0161 60.8071 41.0388 60.7439C41.0569 60.7033 40.8844 60.6898 40.2715 60.6898H39.477L38.6688 63.3386Z" fill="#0A0A0A"/>
<path d="M103.48 60.7123C103.48 60.7304 102.199 64.936 101.75 66.3845L101.614 66.8268H83.0534L82.9127 67.287C82.8355 67.5442 82.7538 67.806 82.7311 67.8737L82.6902 68H92.7694C98.3084 68 102.844 67.991 102.844 67.9774C102.844 67.9594 104.996 60.8928 105.046 60.7439C105.06 60.7033 104.887 60.6898 104.274 60.6898C103.838 60.6898 103.48 60.6988 103.48 60.7123Z" fill="#0A0A0A"/>
</g>
</g>
</svg>
