<svg width="233" height="259" viewBox="0 0 233 259" fill="none" xmlns="http://www.w3.org/2000/svg">
<mask id="path-1-inside-1_721_12669" fill="white">
<path fill-rule="evenodd" clip-rule="evenodd" d="M169.986 0.716797C169.986 0.716797 62.6507 0.772853 62.4829 0.772853C23.8942 1.01109 0 26.4607 0 65.2799V194.154C0 233.169 24.076 258.717 63.0002 258.717C63.0002 258.717 170.321 258.675 170.503 258.675C209.092 258.436 233 232.973 233 194.154V65.2799C233 26.2645 208.91 0.716797 169.986 0.716797Z"/>
<path d="M38.0158 49.8596C38.0158 40.3604 45.7024 32.6597 55.1842 32.6597C64.6661 32.6597 72.3526 40.3604 72.3526 49.8597V208.345C72.3526 217.845 64.6661 225.545 55.1842 225.545C45.7024 225.545 38.0158 217.845 38.0158 208.345V49.8596Z"/>
<path d="M30.6579 180.305C30.6579 173.52 36.1483 168.019 42.9211 168.019H67.4474C74.2201 168.019 79.7105 173.52 79.7105 180.305V190.701C79.7105 197.486 74.2201 202.987 67.4474 202.987H42.9211C36.1483 202.987 30.6579 197.486 30.6579 190.701V180.305Z"/>
<path d="M99.3316 49.8596C99.3316 40.3604 107.018 32.6597 116.5 32.6597C125.982 32.6597 133.668 40.3604 133.668 49.8597V208.345C133.668 217.845 125.982 225.545 116.5 225.545C107.018 225.545 99.3316 217.845 99.3316 208.345V49.8596Z"/>
<path d="M91.9737 90.0648C91.9737 83.2796 97.4641 77.7791 104.237 77.7791H128.763C135.536 77.7791 141.026 83.2796 141.026 90.0648V100.461C141.026 107.246 135.536 112.747 128.763 112.747H104.237C97.4641 112.747 91.9737 107.246 91.9737 100.461V90.0648Z"/>
<path d="M160.647 49.8596C160.647 40.3604 168.334 32.6597 177.816 32.6597C187.298 32.6597 194.984 40.3604 194.984 49.8597V208.345C194.984 217.845 187.298 225.545 177.816 225.545C168.334 225.545 160.647 217.845 160.647 208.345V49.8596Z"/>
<path d="M153.289 141.952C153.289 135.167 158.78 129.667 165.553 129.667H190.079C196.852 129.667 202.342 135.167 202.342 141.952V152.348C202.342 159.134 196.852 164.634 190.079 164.634H165.553C158.78 164.634 153.289 159.134 153.289 152.348V141.952Z"/>
</mask>
<path fill-rule="evenodd" clip-rule="evenodd" d="M169.986 0.716797C169.986 0.716797 62.6507 0.772853 62.4829 0.772853C23.8942 1.01109 0 26.4607 0 65.2799V194.154C0 233.169 24.076 258.717 63.0002 258.717C63.0002 258.717 170.321 258.675 170.503 258.675C209.092 258.436 233 232.973 233 194.154V65.2799C233 26.2645 208.91 0.716797 169.986 0.716797Z" fill="url(#paint0_linear_721_12669)"/>
<path d="M38.0158 49.8596C38.0158 40.3604 45.7024 32.6597 55.1842 32.6597C64.6661 32.6597 72.3526 40.3604 72.3526 49.8597V208.345C72.3526 217.845 64.6661 225.545 55.1842 225.545C45.7024 225.545 38.0158 217.845 38.0158 208.345V49.8596Z" fill="url(#paint1_linear_721_12669)"/>
<path d="M30.6579 180.305C30.6579 173.52 36.1483 168.019 42.9211 168.019H67.4474C74.2201 168.019 79.7105 173.52 79.7105 180.305V190.701C79.7105 197.486 74.2201 202.987 67.4474 202.987H42.9211C36.1483 202.987 30.6579 197.486 30.6579 190.701V180.305Z" fill="url(#paint2_linear_721_12669)"/>
<path d="M99.3316 49.8596C99.3316 40.3604 107.018 32.6597 116.5 32.6597C125.982 32.6597 133.668 40.3604 133.668 49.8597V208.345C133.668 217.845 125.982 225.545 116.5 225.545C107.018 225.545 99.3316 217.845 99.3316 208.345V49.8596Z" fill="url(#paint3_linear_721_12669)"/>
<path d="M91.9737 90.0648C91.9737 83.2796 97.4641 77.7791 104.237 77.7791H128.763C135.536 77.7791 141.026 83.2796 141.026 90.0648V100.461C141.026 107.246 135.536 112.747 128.763 112.747H104.237C97.4641 112.747 91.9737 107.246 91.9737 100.461V90.0648Z" fill="url(#paint4_linear_721_12669)"/>
<path d="M160.647 49.8596C160.647 40.3604 168.334 32.6597 177.816 32.6597C187.298 32.6597 194.984 40.3604 194.984 49.8597V208.345C194.984 217.845 187.298 225.545 177.816 225.545C168.334 225.545 160.647 217.845 160.647 208.345V49.8596Z" fill="url(#paint5_linear_721_12669)"/>
<path d="M153.289 141.952C153.289 135.167 158.78 129.667 165.553 129.667H190.079C196.852 129.667 202.342 135.167 202.342 141.952V152.348C202.342 159.134 196.852 164.634 190.079 164.634H165.553C158.78 164.634 153.289 159.134 153.289 152.348V141.952Z" fill="url(#paint6_linear_721_12669)"/>
<path d="M169.986 0.716797V-3.2832L169.984 -3.2832L169.986 0.716797ZM62.4829 0.772853V-3.22715C62.4747 -3.22715 62.4664 -3.22712 62.4582 -3.22707L62.4829 0.772853ZM63.0002 258.717V262.717H63.0018L63.0002 258.717ZM170.503 258.675V262.675C170.511 262.675 170.52 262.675 170.528 262.675L170.503 258.675ZM169.986 0.716797C169.984 -3.2832 169.983 -3.2832 169.983 -3.2832C169.982 -3.2832 169.981 -3.2832 169.979 -3.2832C169.976 -3.2832 169.971 -3.2832 169.964 -3.28319C169.951 -3.28319 169.932 -3.28318 169.906 -3.28316C169.854 -3.28313 169.777 -3.28309 169.676 -3.28304C169.473 -3.28294 169.171 -3.28278 168.778 -3.28257C167.992 -3.28216 166.839 -3.28156 165.371 -3.28079C162.436 -3.27926 158.243 -3.27707 153.21 -3.27444C143.145 -3.26919 129.723 -3.26218 116.295 -3.25517C102.868 -3.24817 89.4352 -3.24116 79.3489 -3.23591C74.3058 -3.23328 70.0992 -3.23109 67.1482 -3.22956C65.6727 -3.22879 64.5111 -3.22819 63.7158 -3.22778C63.3181 -3.22757 63.012 -3.22741 62.804 -3.22731C62.7 -3.22725 62.6205 -3.22721 62.5664 -3.22719C62.5394 -3.22717 62.5187 -3.22716 62.5044 -3.22716C62.4973 -3.22715 62.4918 -3.22715 62.488 -3.22715C62.4835 -3.22715 62.4824 -3.22715 62.4829 -3.22715V4.77285C62.5682 4.77285 89.446 4.75884 116.299 4.74482C129.727 4.73782 143.149 4.73081 153.214 4.72555C158.247 4.72293 162.44 4.72074 165.376 4.7192C166.843 4.71844 167.996 4.71784 168.783 4.71743C169.176 4.71722 169.477 4.71706 169.68 4.71696C169.782 4.7169 169.859 4.71686 169.91 4.71684C169.936 4.71682 169.955 4.71681 169.968 4.71681C169.975 4.7168 169.98 4.7168 169.983 4.7168C169.985 4.7168 169.986 4.7168 169.987 4.7168C169.988 4.7168 169.988 4.7168 169.986 0.716797ZM62.4582 -3.22707C42.2633 -3.10239 25.547 3.64329 13.8854 15.7881C2.23967 27.9165 -4 45.0476 -4 65.2799H4C4 46.693 9.70744 31.6897 19.6559 21.329C29.5887 10.9846 44.1138 4.88634 62.5076 4.77278L62.4582 -3.22707ZM-4 65.2799V194.154H4V65.2799H-4ZM-4 194.154C-4 214.486 2.28638 231.696 14.0271 243.846C25.7839 256.012 42.6369 262.717 63.0002 262.717V254.717C44.4393 254.717 29.7922 248.648 19.78 238.286C9.75161 227.909 4 212.837 4 194.154H-4ZM63.0002 258.717C63.0018 262.717 63.0022 262.717 63.003 262.717C63.0038 262.717 63.005 262.717 63.0067 262.717C63.0099 262.717 63.0148 262.717 63.0213 262.717C63.0343 262.717 63.0537 262.717 63.0795 262.717C63.1311 262.717 63.2081 262.717 63.3096 262.717C63.5127 262.717 63.814 262.716 64.2071 262.716C64.9932 262.716 66.1461 262.716 67.6136 262.715C70.5485 262.714 74.7414 262.712 79.7735 262.71C89.8377 262.706 103.259 262.701 116.685 262.696C130.112 262.691 143.544 262.685 153.631 262.681C158.674 262.679 162.881 262.678 165.833 262.677C167.309 262.676 168.471 262.676 169.267 262.675C169.665 262.675 169.972 262.675 170.18 262.675C170.285 262.675 170.364 262.675 170.418 262.675C170.446 262.675 170.466 262.675 170.481 262.675C170.488 262.675 170.494 262.675 170.497 262.675C170.502 262.675 170.503 262.675 170.503 262.675V254.675C170.411 254.675 143.534 254.685 116.682 254.696C103.255 254.701 89.8346 254.706 79.7704 254.71C74.7383 254.712 70.5454 254.714 67.6104 254.715C66.143 254.716 64.99 254.716 64.2039 254.716C63.8109 254.716 63.5096 254.717 63.3065 254.717C63.205 254.717 63.128 254.717 63.0764 254.717C63.0506 254.717 63.0312 254.717 63.0182 254.717C63.0117 254.717 63.0068 254.717 63.0035 254.717C63.0019 254.717 63.0007 254.717 62.9999 254.717C62.999 254.717 62.9986 254.717 63.0002 258.717ZM170.528 262.675C190.723 262.55 207.443 255.8 219.108 243.653C230.757 231.521 237 214.387 237 194.154H229C229 212.74 223.289 227.747 213.337 238.112C203.401 248.46 188.872 254.561 170.478 254.675L170.528 262.675ZM237 194.154V65.2799H229V194.154H237ZM237 65.2799C237 44.9472 230.71 27.7372 218.966 15.5875C207.205 3.42139 190.349 -3.2832 169.986 -3.2832V4.7168C188.547 4.7168 203.198 10.7861 213.214 21.1476C223.245 31.5257 229 46.5972 229 65.2799H237ZM68.3526 49.8597V208.345H76.3526V49.8597H68.3526ZM42.0158 208.345V49.8596H34.0158V208.345H42.0158ZM55.1842 221.545C47.9184 221.545 42.0158 215.642 42.0158 208.345H34.0158C34.0158 220.047 43.4863 229.545 55.1842 229.545V221.545ZM68.3526 208.345C68.3526 215.642 62.45 221.545 55.1842 221.545V229.545C66.8821 229.545 76.3526 220.047 76.3526 208.345H68.3526ZM55.1842 36.6597C62.45 36.6597 68.3526 42.5626 68.3526 49.8597H76.3526C76.3526 38.1581 66.8821 28.6597 55.1842 28.6597V36.6597ZM55.1842 28.6597C43.4863 28.6597 34.0158 38.1581 34.0158 49.8596H42.0158C42.0158 42.5626 47.9184 36.6597 55.1842 36.6597V28.6597ZM42.9211 172.019H67.4474V164.019H42.9211V172.019ZM75.7105 180.305V190.701H83.7105V180.305H75.7105ZM67.4474 198.987H42.9211V206.987H67.4474V198.987ZM34.6579 190.701V180.305H26.6579V190.701H34.6579ZM42.9211 198.987C38.3644 198.987 34.6579 195.284 34.6579 190.701H26.6579C26.6579 199.688 33.9322 206.987 42.9211 206.987V198.987ZM75.7105 190.701C75.7105 195.284 72.0041 198.987 67.4474 198.987V206.987C76.4362 206.987 83.7105 199.688 83.7105 190.701H75.7105ZM67.4474 172.019C72.0041 172.019 75.7105 175.722 75.7105 180.305H83.7105C83.7105 171.317 76.4362 164.019 67.4474 164.019V172.019ZM42.9211 164.019C33.9322 164.019 26.6579 171.317 26.6579 180.305H34.6579C34.6579 175.722 38.3644 172.019 42.9211 172.019V164.019ZM129.668 49.8597V208.345H137.668V49.8597H129.668ZM103.332 208.345V49.8596H95.3316V208.345H103.332ZM116.5 221.545C109.234 221.545 103.332 215.642 103.332 208.345H95.3316C95.3316 220.047 104.802 229.545 116.5 229.545V221.545ZM129.668 208.345C129.668 215.642 123.766 221.545 116.5 221.545V229.545C128.198 229.545 137.668 220.047 137.668 208.345H129.668ZM116.5 36.6597C123.766 36.6597 129.668 42.5626 129.668 49.8597H137.668C137.668 38.1581 128.198 28.6597 116.5 28.6597V36.6597ZM116.5 28.6597C104.802 28.6597 95.3316 38.1581 95.3316 49.8596H103.332C103.332 42.5626 109.234 36.6597 116.5 36.6597V28.6597ZM104.237 81.7791H128.763V73.7791H104.237V81.7791ZM137.026 90.0648V100.461H145.026V90.0648H137.026ZM128.763 108.747H104.237V116.747H128.763V108.747ZM95.9737 100.461V90.0648H87.9737V100.461H95.9737ZM104.237 108.747C99.6802 108.747 95.9737 105.044 95.9737 100.461H87.9737C87.9737 109.448 95.248 116.747 104.237 116.747V108.747ZM137.026 100.461C137.026 105.044 133.32 108.747 128.763 108.747V116.747C137.752 116.747 145.026 109.448 145.026 100.461H137.026ZM128.763 81.7791C133.32 81.7791 137.026 85.4818 137.026 90.0648H145.026C145.026 81.0774 137.752 73.7791 128.763 73.7791V81.7791ZM104.237 73.7791C95.248 73.7791 87.9737 81.0774 87.9737 90.0648H95.9737C95.9737 85.4818 99.6802 81.7791 104.237 81.7791V73.7791ZM190.984 49.8597V208.345H198.984V49.8597H190.984ZM164.647 208.345V49.8596H156.647V208.345H164.647ZM177.816 221.545C170.55 221.545 164.647 215.642 164.647 208.345H156.647C156.647 220.047 166.118 229.545 177.816 229.545V221.545ZM190.984 208.345C190.984 215.642 185.082 221.545 177.816 221.545V229.545C189.514 229.545 198.984 220.047 198.984 208.345H190.984ZM177.816 36.6597C185.082 36.6597 190.984 42.5626 190.984 49.8597H198.984C198.984 38.1581 189.514 28.6597 177.816 28.6597V36.6597ZM177.816 28.6597C166.118 28.6597 156.647 38.1581 156.647 49.8596H164.647C164.647 42.5626 170.55 36.6597 177.816 36.6597V28.6597ZM165.553 133.667H190.079V125.667H165.553V133.667ZM198.342 141.952V152.348H206.342V141.952H198.342ZM190.079 160.634H165.553V168.634H190.079V160.634ZM157.289 152.348V141.952H149.289V152.348H157.289ZM165.553 160.634C160.996 160.634 157.289 156.931 157.289 152.348H149.289C149.289 161.336 156.564 168.634 165.553 168.634V160.634ZM198.342 152.348C198.342 156.931 194.636 160.634 190.079 160.634V168.634C199.068 168.634 206.342 161.336 206.342 152.348H198.342ZM190.079 133.667C194.636 133.667 198.342 137.369 198.342 141.952H206.342C206.342 132.965 199.068 125.667 190.079 125.667V133.667ZM165.553 125.667C156.564 125.667 149.289 132.965 149.289 141.952H157.289C157.289 137.369 160.996 133.667 165.553 133.667V125.667Z" fill="#FFFEFE" mask="url(#path-1-inside-1_721_12669)"/>
<defs>
<linearGradient id="paint0_linear_721_12669" x1="-32.731" y1="-53.3494" x2="202.414" y2="311.928" gradientUnits="userSpaceOnUse">
<stop stop-color="#E2A4FF"/>
<stop offset="0.558097" stop-color="#8490FF"/>
<stop offset="1" stop-color="#65C8D0"/>
</linearGradient>
<linearGradient id="paint1_linear_721_12669" x1="-32.7309" y1="-53.3494" x2="226.849" y2="394.579" gradientUnits="userSpaceOnUse">
<stop stop-color="#E2A4FF"/>
<stop offset="0.730644" stop-color="#6777FF"/>
</linearGradient>
<linearGradient id="paint2_linear_721_12669" x1="-32.7309" y1="-53.3494" x2="226.849" y2="394.579" gradientUnits="userSpaceOnUse">
<stop stop-color="#E2A4FF"/>
<stop offset="0.730644" stop-color="#6777FF"/>
</linearGradient>
<linearGradient id="paint3_linear_721_12669" x1="-32.7309" y1="-53.3494" x2="226.849" y2="394.579" gradientUnits="userSpaceOnUse">
<stop stop-color="#E2A4FF"/>
<stop offset="0.730644" stop-color="#6777FF"/>
</linearGradient>
<linearGradient id="paint4_linear_721_12669" x1="-32.7309" y1="-53.3494" x2="226.849" y2="394.579" gradientUnits="userSpaceOnUse">
<stop stop-color="#E2A4FF"/>
<stop offset="0.730644" stop-color="#6777FF"/>
</linearGradient>
<linearGradient id="paint5_linear_721_12669" x1="-32.7309" y1="-53.3494" x2="226.849" y2="394.579" gradientUnits="userSpaceOnUse">
<stop stop-color="#E2A4FF"/>
<stop offset="0.730644" stop-color="#6777FF"/>
</linearGradient>
<linearGradient id="paint6_linear_721_12669" x1="-32.7309" y1="-53.3494" x2="226.849" y2="394.579" gradientUnits="userSpaceOnUse">
<stop stop-color="#E2A4FF"/>
<stop offset="0.730644" stop-color="#6777FF"/>
</linearGradient>
</defs>
</svg>
