
<svg width="140" height="30" viewBox="0 0 140 30" fill="none" xmlns="http://www.w3.org/2000/svg">
<path d="M43.0662 22.8804H37.7226L36.4401 26.6428H34.1763L39.2382 12.7227H41.5895L46.6514 26.6428H44.3487L43.0662 22.8804ZM38.2763 21.144H42.5125L40.4236 15.038H40.3653L38.2763 21.144Z" fill="#FFFEFE"/>
<path d="M57.5719 21.5685C57.5719 24.7237 55.8717 26.7496 53.3067 26.7496C52.6568 26.7835 52.0105 26.635 51.4417 26.3211C50.873 26.0071 50.4048 25.5405 50.0908 24.9745H50.0422V30H47.9436V16.4941H49.9741V18.183H50.013C50.3412 17.6195 50.8173 17.1549 51.3905 16.8389C51.9637 16.5229 52.6125 16.3673 53.2678 16.3887C55.8619 16.3887 57.5719 18.4235 57.5719 21.5685ZM55.415 21.5685C55.415 19.5143 54.3462 18.1637 52.714 18.1637C51.1109 18.1637 50.0324 19.5426 50.0324 21.5685C50.0324 23.6137 51.1109 24.9835 52.714 24.9835C54.3463 24.9835 55.415 23.6432 55.415 21.5685Z" fill="#FFFEFE"/>
<path d="M68.8131 21.5685C68.8131 24.7237 67.1128 26.7496 64.5478 26.7496C63.898 26.7835 63.2516 26.635 62.6829 26.3211C62.1141 26.0071 61.6459 25.5405 61.3319 24.9745H61.2833V30H59.1847V16.4941H61.2153V18.183H61.2542C61.5824 17.6195 62.0585 17.1549 62.6317 16.8389C63.2049 16.5229 63.8537 16.3673 64.509 16.3887C67.1031 16.3887 68.8131 18.4235 68.8131 21.5685ZM66.6561 21.5685C66.6561 19.5143 65.5874 18.1637 63.9551 18.1637C62.352 18.1637 61.2736 19.5426 61.2736 21.5685C61.2736 23.6137 62.352 24.9835 63.9551 24.9835C65.5874 24.9835 66.6561 23.6432 66.6561 21.5685Z" fill="#FFFEFE"/>
<path d="M70.5036 12.7228H72.6022V26.6428H70.5036V12.7228Z" fill="#FFFEFE"/>
<path d="M83.5228 23.6625C83.241 25.5045 81.4339 26.7689 79.1215 26.7689C76.1485 26.7689 74.3025 24.7906 74.3025 21.6174C74.3025 18.4338 76.1582 16.3694 79.0341 16.3694C81.8614 16.3694 83.6394 18.2988 83.6394 21.3755V22.0894H76.4205V22.2155C76.3872 22.589 76.4343 22.9653 76.5586 23.3194C76.683 23.6734 76.8818 23.9972 77.1419 24.2691C77.4019 24.541 77.7173 24.7549 78.067 24.8964C78.4167 25.038 78.7928 25.1041 79.1702 25.0903C79.666 25.1362 80.1636 25.0221 80.5889 24.7649C81.0142 24.5077 81.3447 24.1211 81.5311 23.6625H83.5228ZM76.4303 20.6334H81.5408C81.5597 20.2975 81.5085 19.9614 81.3903 19.6461C81.2722 19.3309 81.0898 19.0433 80.8544 18.8013C80.619 18.5594 80.3358 18.3684 80.0226 18.2403C79.7093 18.1122 79.3728 18.0498 79.0341 18.0569C78.6924 18.0549 78.3536 18.1201 78.0373 18.2487C77.7211 18.3773 77.4336 18.5669 77.1915 18.8064C76.9494 19.0459 76.7575 19.3307 76.6269 19.6443C76.4962 19.9579 76.4294 20.294 76.4303 20.6334Z" fill="#FFFEFE"/>
<path d="M101.739 26.6428V16.3977H101.672L97.4449 26.5374H95.832L91.596 16.3977H91.5286V26.6428H89.5465V12.7228H92.0622L96.6002 23.7101H96.6779L101.205 12.7228H103.732V26.6428H101.739Z" fill="#FFFEFE"/>
<path d="M114.906 26.6428H112.896V24.8974H112.846C112.576 25.4942 112.127 25.9935 111.56 26.3267C110.993 26.66 110.336 26.8108 109.679 26.7586C109.184 26.7872 108.688 26.7081 108.227 26.5268C107.766 26.3456 107.35 26.0666 107.009 25.7093C106.668 25.352 106.409 24.9251 106.251 24.4582C106.093 23.9914 106.04 23.496 106.094 23.0065V16.4941H108.193V22.6014C108.14 22.9068 108.158 23.2202 108.246 23.5176C108.334 23.815 108.489 24.0884 108.7 24.3167C108.911 24.545 109.173 24.7221 109.463 24.8344C109.754 24.9466 110.067 24.9911 110.378 24.9643C110.719 24.9754 111.058 24.9133 111.372 24.7824C111.687 24.6514 111.969 24.4547 112.199 24.2056C112.43 23.9564 112.604 23.6608 112.709 23.3389C112.813 23.017 112.847 22.6763 112.807 22.3403V16.4941H114.906L114.906 26.6428Z" fill="#FFFEFE"/>
<path d="M120.874 16.3784C123.137 16.3784 124.76 17.6235 124.808 19.4178H122.837C122.8 19.191 122.718 18.9737 122.597 18.7782C122.475 18.5827 122.316 18.413 122.128 18.2786C121.941 18.1442 121.728 18.0478 121.503 17.995C121.278 17.9422 121.044 17.934 120.816 17.9708C119.678 17.9708 118.921 18.4917 118.921 19.2828C118.921 19.8899 119.426 20.2951 120.486 20.5562L122.205 20.9511C124.264 21.4437 125.042 22.1962 125.042 23.6818C125.042 25.5148 123.293 26.7689 120.796 26.7689C118.387 26.7689 116.764 25.5431 116.608 23.6908H118.687C118.784 24.1779 119.069 24.6079 119.482 24.8879C119.894 25.1678 120.402 25.2752 120.894 25.1868C122.146 25.1868 122.934 24.6749 122.934 23.8645C122.934 23.2381 122.545 22.8998 121.477 22.6297L119.65 22.1859C117.804 21.7421 116.871 20.807 116.871 19.3985C116.871 17.6042 118.493 16.3784 120.874 16.3784Z" fill="#FFFEFE"/>
<path d="M126.676 13.8225C126.671 13.5819 126.739 13.3452 126.87 13.1428C127.001 12.9404 127.19 12.7814 127.413 12.6861C127.635 12.5908 127.882 12.5636 128.12 12.6079C128.358 12.6522 128.578 12.7661 128.751 12.9349C128.923 13.1038 129.042 13.3199 129.09 13.5557C129.139 13.7916 129.115 14.0364 129.023 14.259C128.93 14.4816 128.773 14.6717 128.572 14.8052C128.37 14.9387 128.133 15.0095 127.89 15.0085C127.732 15.0103 127.575 14.9809 127.428 14.9222C127.281 14.8635 127.148 14.7765 127.035 14.6662C126.922 14.556 126.832 14.4247 126.771 14.2799C126.709 14.1351 126.677 13.9797 126.676 13.8225ZM126.841 16.4941H128.94V26.6428H126.841V16.4941Z" fill="#FFFEFE"/>
<path d="M137.979 19.9864C137.887 19.4312 137.588 18.9306 137.142 18.5839C136.696 18.2373 136.134 18.0698 135.57 18.1148C133.957 18.1148 132.888 19.4564 132.888 21.5685C132.888 23.7294 133.966 25.0324 135.589 25.0324C136.146 25.0875 136.704 24.9295 137.148 24.5906C137.592 24.2517 137.889 23.7574 137.979 23.2085H140C139.874 24.2581 139.341 25.2175 138.513 25.8825C137.686 26.5475 136.63 26.8655 135.57 26.7689C132.655 26.7689 130.751 24.7906 130.751 21.5685C130.751 18.4145 132.655 16.3694 135.55 16.3694C136.618 16.2795 137.679 16.6074 138.506 17.2831C139.334 17.9588 139.863 18.9289 139.981 19.9864H137.979Z" fill="#FFFEFE"/>
<path d="M27.8359 3.76356C27.4917 2.95314 26.9712 2.2283 26.3119 1.64097C25.6525 1.05364 24.8705 0.618335 24.0219 0.366236C22.9008 0.0880237 21.746 -0.0327101 20.5911 0.00756169H7.81745C6.66261 -0.0326991 5.50779 0.088046 4.38673 0.366269C3.53808 0.618369 2.75608 1.05367 2.09671 1.641C1.43734 2.22834 0.916917 2.95317 0.572715 3.7636C0.14024 5.04973 -0.0500954 6.40393 0.011225 7.75849V20.4419C-0.0500996 21.7964 0.140236 23.1506 0.572715 24.4368C0.916917 25.2472 1.43734 25.9721 2.09671 26.5594C2.75608 27.1467 3.53808 27.582 4.38673 27.8341C5.50779 28.1123 6.66261 28.2331 7.81745 28.1928H20.5911C21.746 28.2331 22.9008 28.1123 24.0219 27.8341C24.8705 27.582 25.6525 27.1467 26.3119 26.5594C26.9712 25.9721 27.4917 25.2472 27.8359 24.4368C28.2683 23.1506 28.4586 21.7964 28.3973 20.4419V7.75849C28.4586 6.40392 28.2683 5.04971 27.8359 3.76356ZM20.7189 19.3931C20.6484 19.7399 20.5077 20.0688 20.3054 20.36C20.1013 20.6505 19.8364 20.8938 19.5288 21.0732C19.2229 21.2467 18.8895 21.3671 18.5428 21.4292C18.046 21.5572 17.528 21.5833 17.0206 21.5057C16.6379 21.4304 16.2834 21.2518 15.9964 20.9893C15.7766 20.7926 15.5989 20.5539 15.4739 20.2876C15.3489 20.0213 15.2791 19.7327 15.2687 19.4391C15.2582 19.1455 15.3074 18.8527 15.4132 18.5783C15.519 18.3039 15.6793 18.0534 15.8845 17.8418C16.1431 17.5797 16.4579 17.3789 16.8054 17.2541C17.3139 17.0803 17.8362 16.949 18.3668 16.8617C18.5504 16.825 18.734 16.7882 18.9176 16.7514C19.1548 16.7272 19.3743 16.6158 19.5331 16.4392C19.6725 16.2355 19.7332 15.9888 19.704 15.7443L19.7042 9.53294C19.7042 9.05791 19.4896 8.92847 19.0327 9.01561C18.7062 9.07888 11.6931 10.4833 11.6931 10.4833C11.6081 10.488 11.5252 10.5112 11.4502 10.5512C11.3752 10.5912 11.3099 10.647 11.2589 10.7147C11.208 10.7825 11.1726 10.8605 11.1552 10.9432C11.1379 11.026 11.139 11.1115 11.1585 11.1938L11.1587 20.295C11.1648 20.641 11.1331 20.9867 11.0643 21.3259C10.9937 21.6727 10.853 22.0017 10.6507 22.2929C10.4466 22.5834 10.1817 22.8267 9.87408 23.006C9.56847 23.1811 9.23504 23.3033 8.88811 23.3672C8.39124 23.4953 7.87326 23.5213 7.3659 23.4437C6.98272 23.3667 6.62834 23.1862 6.34169 22.9222C5.90731 22.5191 5.65161 21.9614 5.63065 21.3714C5.60969 20.7814 5.82518 20.2072 6.22988 19.7747C6.48846 19.5126 6.80319 19.3118 7.15069 19.187C7.65921 19.0132 8.18151 18.8819 8.7121 18.7946C8.89565 18.7579 9.07925 18.7211 9.26291 18.6843C9.5001 18.6601 9.71961 18.5487 9.8784 18.3721C10.0217 18.1716 10.0877 17.9268 10.0645 17.682V7.20064C10.0638 7.10612 10.0703 7.01168 10.0841 6.91815C10.1075 6.70816 10.2087 6.5143 10.368 6.37422C10.521 6.25385 10.7018 6.17316 10.894 6.13939L10.8973 6.13875L19.3341 4.44859C19.4073 4.43379 20.0171 4.32631 20.0856 4.32037C20.1852 4.30786 20.2863 4.31872 20.3808 4.35206C20.4753 4.38541 20.5606 4.44031 20.6299 4.51236C20.6992 4.58441 20.7504 4.6716 20.7796 4.7669C20.8087 4.86221 20.8149 4.96298 20.7977 5.0611L20.7981 18.3573C20.8094 18.7044 20.7828 19.0517 20.7189 19.3931Z" fill="#FFFEFE"/>
<path d="M39.1021 8.44817H34.8419V1.66509H35.9017V7.48009H39.1021L39.1021 8.44817Z" fill="#FFFEFE"/>
<path d="M40.3304 1.81604C40.3226 1.6851 40.3545 1.55483 40.4221 1.44212C40.4897 1.32942 40.5898 1.23947 40.7095 1.18395C40.8292 1.12842 40.963 1.10987 41.0934 1.13071C41.2238 1.15154 41.345 1.2108 41.4411 1.3008C41.5372 1.3908 41.6039 1.50739 41.6324 1.63546C41.661 1.76353 41.6502 1.89718 41.6014 2.01907C41.5526 2.14097 41.468 2.24549 41.3587 2.3191C41.2493 2.3927 41.1202 2.432 40.9881 2.43189C40.9038 2.43602 40.8195 2.42319 40.7403 2.39418C40.6611 2.36517 40.5886 2.32057 40.5271 2.26306C40.4657 2.20554 40.4166 2.1363 40.3828 2.05949C40.349 1.98267 40.3312 1.89987 40.3304 1.81604ZM40.4824 3.32887H41.4949V8.44817H40.4824V3.32887Z" fill="#FFFEFE"/>
<path d="M45.0169 3.23042C45.4764 3.15626 45.9467 3.26603 46.3249 3.53567C46.703 3.80531 46.958 4.21282 47.034 4.66886H46.0591C45.9848 4.46176 45.84 4.28691 45.6497 4.17448C45.4595 4.06205 45.2356 4.01909 45.0169 4.05301C44.7954 4.01026 44.5659 4.05652 44.3788 4.18162C44.1917 4.30673 44.0622 4.50045 44.0188 4.72027C44.0188 5.02656 44.2788 5.21907 44.8373 5.34596L45.6944 5.54285C46.0691 5.54664 46.4279 5.69391 46.696 5.95395C46.964 6.21399 47.1207 6.56673 47.1332 6.93863C47.1053 7.18594 47.0271 7.42505 46.9033 7.64142C46.7795 7.8578 46.6127 8.04692 46.413 8.19732C46.2133 8.34771 45.9849 8.45622 45.7417 8.51627C45.4985 8.57631 45.2455 8.58664 44.9982 8.54662C44.5232 8.63049 44.0342 8.52432 43.6379 8.25132C43.2415 7.97831 42.9701 7.56065 42.883 7.08959H43.8998C43.9878 7.30558 44.1462 7.48597 44.3498 7.60181C44.5534 7.71766 44.7903 7.76224 45.0224 7.7284C45.2583 7.77916 45.5048 7.73502 45.708 7.60565C45.9112 7.47628 46.0545 7.27222 46.1064 7.03817C46.0775 6.8606 45.9848 6.69942 45.8455 6.58442C45.7062 6.46941 45.5296 6.40834 45.3485 6.41248L44.4496 6.20574C44.0714 6.19634 43.7114 6.04268 43.4443 5.77666C43.1771 5.51064 43.0235 5.1527 43.0152 4.77715C43.0387 4.54281 43.11 4.31567 43.2247 4.1095C43.3393 3.90334 43.495 3.72245 43.6822 3.57781C43.8693 3.43317 44.0842 3.3278 44.3136 3.26808C44.543 3.20837 44.7823 3.19555 45.0169 3.23042Z" fill="#FFFEFE"/>
<path d="M49.8389 2.0556V3.35293H50.9559V4.20396H49.8389V6.83582C49.8174 6.93734 49.821 7.04249 49.8492 7.14237C49.8774 7.24224 49.9294 7.33389 50.0009 7.40956C50.0723 7.48523 50.1611 7.54268 50.2596 7.57705C50.3582 7.61142 50.4636 7.62169 50.5671 7.607C50.6971 7.60652 50.8269 7.59849 50.9559 7.58294V8.42415C50.7731 8.45724 50.5877 8.47481 50.4018 8.47667C49.2704 8.47667 48.8209 8.08178 48.8209 7.09402V4.20396H48.0024V3.35293H48.8209V2.0556H49.8389Z" fill="#FFFEFE"/>
<path d="M56.5965 7.06551C56.458 7.5333 56.1584 7.93791 55.7501 8.20864C55.3417 8.47937 54.8505 8.599 54.3623 8.54662C54.0227 8.55553 53.6852 8.49096 53.3732 8.3574C53.0612 8.22383 52.7822 8.02446 52.5556 7.77313C52.329 7.52179 52.1602 7.22451 52.0609 6.9019C51.9616 6.5793 51.9341 6.23911 51.9805 5.90492C51.9353 5.56975 51.9631 5.22883 52.062 4.90526C52.161 4.58168 52.3288 4.28298 52.5541 4.02939C52.7795 3.7758 53.057 3.57323 53.368 3.43538C53.679 3.29754 54.0162 3.22763 54.3568 3.23041C54.6873 3.22236 55.0156 3.2861 55.3188 3.41719C55.6219 3.54828 55.8925 3.74354 56.1117 3.98932C56.3309 4.2351 56.4934 4.52546 56.5878 4.84009C56.6821 5.15473 56.7062 5.48603 56.6581 5.81084V6.16308H53.0172V6.21996C53.0011 6.40783 53.0247 6.59697 53.0866 6.77523C53.1485 6.95349 53.2473 7.11693 53.3765 7.25505C53.5058 7.39318 53.6627 7.50295 53.8372 7.57731C54.0117 7.65167 54.2 7.68897 54.3898 7.68683C54.6332 7.71578 54.8798 7.67215 55.0982 7.5615C55.3165 7.45086 55.4968 7.2782 55.616 7.06551H56.5965ZM53.0172 5.41597H55.6215C55.634 5.24428 55.6103 5.07189 55.5519 4.90983C55.4934 4.74778 55.4015 4.59964 55.282 4.47492C55.1625 4.3502 55.0181 4.25165 54.858 4.18559C54.6979 4.11952 54.5257 4.0874 54.3524 4.09129C54.1765 4.08902 54.0019 4.12172 53.839 4.18747C53.676 4.25322 53.528 4.35069 53.4035 4.47414C53.2791 4.59759 53.1808 4.74452 53.1144 4.90627C53.0481 5.06802 53.015 5.24133 53.0172 5.41597Z" fill="#FFFEFE"/>
<path d="M58.0176 3.32887H58.9981V4.1427H59.0741C59.2029 3.85055 59.4203 3.60561 59.696 3.44206C59.9717 3.27851 60.292 3.20452 60.6121 3.23042C60.8629 3.21177 61.1146 3.24936 61.3488 3.3404C61.583 3.43144 61.7936 3.5736 61.9649 3.75636C62.1363 3.93912 62.2641 4.1578 62.3388 4.39623C62.4136 4.63465 62.4334 4.88671 62.3967 5.13375V8.44819H61.3788V5.3875C61.4109 5.23002 61.4054 5.06727 61.3629 4.91225C61.3203 4.75723 61.2419 4.61424 61.1338 4.49468C61.0257 4.37512 60.8909 4.28231 60.7403 4.22367C60.5896 4.16502 60.4272 4.14216 60.2661 4.15691C60.0958 4.14898 59.9258 4.17774 59.7677 4.24121C59.6096 4.30467 59.4673 4.40134 59.3504 4.52459C59.2335 4.64783 59.1448 4.79472 59.0905 4.95519C59.0361 5.11566 59.0174 5.2859 59.0355 5.45423V8.44817H58.0176V3.32887Z" fill="#FFFEFE"/>
<path d="M66.5026 5.88633C66.4701 5.54996 66.5089 5.21057 66.6163 4.88993C66.7237 4.56929 66.8974 4.27447 67.1262 4.0244C67.3551 3.77433 67.6341 3.57452 67.9453 3.43779C68.2565 3.30107 68.5931 3.23044 68.9334 3.23044C69.2737 3.23044 69.6103 3.30107 69.9215 3.43779C70.2327 3.57452 70.5117 3.77433 70.7406 4.0244C70.9695 4.27447 71.1432 4.56929 71.2506 4.88993C71.358 5.21057 71.3967 5.54996 71.3642 5.88633C71.3973 6.22304 71.359 6.56289 71.2519 6.88404C71.1448 7.20519 70.9712 7.50054 70.7423 7.75109C70.5133 8.00165 70.2341 8.20187 69.9226 8.33889C69.6111 8.4759 69.2741 8.54669 68.9334 8.54669C68.5927 8.54669 68.2558 8.4759 67.9442 8.33889C67.6327 8.20187 67.3535 8.00165 67.1246 7.75109C66.8956 7.50054 66.722 7.20519 66.6149 6.88404C66.5078 6.56289 66.4695 6.22304 66.5026 5.88633ZM70.3188 5.88633C70.3188 4.77715 69.8164 4.12848 68.9362 4.12848C68.0504 4.12848 67.5536 4.77714 67.5536 5.88633C67.5536 7.00533 68.0504 7.64855 68.9362 7.64855C69.8164 7.64855 70.3188 6.99989 70.3188 5.88633Z" fill="#FFFEFE"/>
<path d="M72.7248 3.32887H73.7053V4.1427H73.7813C73.91 3.85055 74.1274 3.60561 74.4031 3.44206C74.6788 3.27851 74.9991 3.20452 75.3192 3.23042C75.57 3.21177 75.8218 3.24936 76.056 3.3404C76.2901 3.43144 76.5007 3.5736 76.6721 3.75636C76.8434 3.93912 76.9712 4.1578 77.046 4.39623C77.1207 4.63465 77.1405 4.88671 77.1039 5.13375V8.44819H76.0859V5.3875C76.118 5.23002 76.1125 5.06727 76.07 4.91225C76.0275 4.75723 75.949 4.61424 75.8409 4.49468C75.7328 4.37512 75.5981 4.28231 75.4474 4.22367C75.2968 4.16502 75.1344 4.14216 74.9732 4.15691C74.8029 4.14898 74.6329 4.17774 74.4748 4.24121C74.3168 4.30467 74.1744 4.40134 74.0575 4.52459C73.9406 4.64783 73.8519 4.79472 73.7976 4.95519C73.7433 5.11566 73.7245 5.2859 73.7427 5.45423V8.44817H72.7248V3.32887Z" fill="#FFFEFE"/>
</svg>
