<svg width="38" height="38" viewBox="0 0 38 38" fill="none" xmlns="http://www.w3.org/2000/svg">
<g id="quote-down">
<g id="Vector">
<path d="M34.7555 19.6737H25.747C22.7959 19.6737 20.5748 17.4526 20.5748 14.5015V9.50018C20.5748 6.54912 22.7959 4.32812 25.747 4.32812H30.7482C33.5906 4.32812 35.9204 6.64231 35.9204 9.50018V18.5088C35.9204 19.1611 35.3923 19.6737 34.7555 19.6737ZM25.747 6.67346C24.1006 6.67346 22.9046 7.86935 22.9046 9.51573V14.5171C22.9046 16.1634 24.1006 17.3593 25.747 17.3593H33.5906V9.51573C33.5906 7.94701 32.317 6.67346 30.7482 6.67346H25.747Z" fill="url(#paint0_linear_573_2729)"/>
<path d="M25.747 6.67346C24.1006 6.67346 22.9046 7.86935 22.9046 9.51573V14.5171C22.9046 16.1634 24.1006 17.3593 25.747 17.3593H33.5906V9.51573C33.5906 7.94701 32.317 6.67346 30.7482 6.67346H25.747Z" fill="url(#paint1_linear_573_2729)"/>
</g>
<path id="Vector_2" d="M27.7194 33.7629C27.3155 33.7629 26.9272 33.5609 26.7098 33.1882C26.3836 32.629 26.57 31.9146 27.1136 31.5884C32.1304 28.6063 33.5904 27.3638 33.5904 18.5106C33.5904 17.8738 34.1185 17.3457 34.7553 17.3457C35.3921 17.3457 35.9202 17.8738 35.9202 18.5106C35.9202 28.218 33.9477 30.2527 28.3096 33.592C28.1232 33.7163 27.9213 33.7629 27.7194 33.7629Z" fill="url(#paint2_linear_573_2729)"/>
<g id="Vector_3">
<path d="M16.692 19.6737H7.68348C4.73242 19.6737 2.51135 17.4526 2.51135 14.5015V9.50018C2.51135 6.54912 4.73242 4.32812 7.68348 4.32812H12.7003C15.5426 4.32812 17.8724 6.64231 17.8724 9.50018V18.5088C17.8569 19.1611 17.3443 19.6737 16.692 19.6737ZM7.69901 6.67346C6.05263 6.67346 4.85667 7.86935 4.85667 9.51573V14.5171C4.85667 16.1634 6.05263 17.3593 7.69901 17.3593H15.5426V9.51573C15.5426 7.94701 14.269 6.67346 12.7003 6.67346H7.69901Z" fill="url(#paint3_linear_573_2729)"/>
<path d="M7.69901 6.67346C6.05263 6.67346 4.85667 7.86935 4.85667 9.51573V14.5171C4.85667 16.1634 6.05263 17.3593 7.69901 17.3593H15.5426V9.51573C15.5426 7.94701 14.269 6.67346 12.7003 6.67346H7.69901Z" fill="url(#paint4_linear_573_2729)"/>
</g>
<path id="Vector_4" d="M9.65588 33.7629C9.25205 33.7629 8.86375 33.5609 8.64631 33.1882C8.32014 32.629 8.50652 31.9146 9.05014 31.5884C14.0669 28.6063 15.5269 27.3638 15.5269 18.5106C15.5269 17.8738 16.055 17.3457 16.6918 17.3457C17.3286 17.3457 17.8567 17.8738 17.8567 18.5106C17.8567 28.218 15.8842 30.2527 10.2461 33.592C10.0597 33.7163 9.8578 33.7629 9.65588 33.7629Z" fill="url(#paint5_linear_573_2729)"/>
</g>
<defs>
<linearGradient id="paint0_linear_573_2729" x1="18.4191" y1="1.11233" x2="33.0404" y2="29.0498" gradientUnits="userSpaceOnUse">
<stop stop-color="#E2A4FF"/>
<stop offset="0.730644" stop-color="#6777FF"/>
</linearGradient>
<linearGradient id="paint1_linear_573_2729" x1="18.4191" y1="1.11233" x2="33.0404" y2="29.0498" gradientUnits="userSpaceOnUse">
<stop stop-color="#E2A4FF"/>
<stop offset="0.730644" stop-color="#6777FF"/>
</linearGradient>
<linearGradient id="paint2_linear_573_2729" x1="25.2322" y1="13.9053" x2="44.1981" y2="34.5918" gradientUnits="userSpaceOnUse">
<stop stop-color="#E2A4FF"/>
<stop offset="0.730644" stop-color="#6777FF"/>
</linearGradient>
<linearGradient id="paint3_linear_573_2729" x1="0.353489" y1="1.11233" x2="14.9663" y2="29.0619" gradientUnits="userSpaceOnUse">
<stop stop-color="#E2A4FF"/>
<stop offset="0.730644" stop-color="#6777FF"/>
</linearGradient>
<linearGradient id="paint4_linear_573_2729" x1="0.353489" y1="1.11233" x2="14.9663" y2="29.0619" gradientUnits="userSpaceOnUse">
<stop stop-color="#E2A4FF"/>
<stop offset="0.730644" stop-color="#6777FF"/>
</linearGradient>
<linearGradient id="paint5_linear_573_2729" x1="7.16876" y1="13.9053" x2="26.1347" y2="34.5918" gradientUnits="userSpaceOnUse">
<stop stop-color="#E2A4FF"/>
<stop offset="0.730644" stop-color="#6777FF"/>
</linearGradient>
</defs>
</svg>
