<svg width="288" height="234" viewBox="0 0 288 234" fill="none" xmlns="http://www.w3.org/2000/svg">
<path d="M2.44568 104.817V202.323C2.44568 210.194 5.42776 217.742 10.7359 223.308C16.044 228.873 23.2433 232 30.7501 232H214.729C222.236 232 229.435 228.873 234.743 223.308C240.051 217.742 243.034 210.194 243.034 202.323V180.065M2.44568 104.817V83.6129C2.44568 75.742 5.42776 68.1934 10.7359 62.6278C16.044 57.0622 23.2433 53.9355 30.7501 53.9355H44.9023M2.44568 104.817H44.9023H2.44568Z" fill="url(#paint0_linear_721_12660)"/>
<path d="M44.9023 53.9355V150.387C44.9023 158.258 47.8844 165.807 53.1926 171.372C58.5007 176.938 65.7 180.065 73.2068 180.065H257.186C264.693 180.065 271.892 176.938 277.2 171.372C282.508 165.807 285.49 158.258 285.49 150.387V31.6774C285.49 23.8065 282.508 16.2579 277.2 10.6923C271.892 5.12672 264.693 2 257.186 2H73.2068C65.7 2 58.5007 5.12672 53.1926 10.6923C47.8844 16.2579 44.9023 23.8065 44.9023 31.6774V53.9355ZM44.9023 53.9355H235.957H44.9023Z" fill="url(#paint1_linear_721_12660)"/>
<path d="M2.44568 104.817V83.6129C2.44568 75.742 5.42776 68.1934 10.7359 62.6278C16.044 57.0622 23.2433 53.9355 30.7501 53.9355H44.9023V104.817H2.44568Z" fill="url(#paint2_linear_721_12660)"/>
<path d="M2.44568 202.323V104.817H44.9023V150.387C44.9023 158.258 47.8844 165.807 53.1926 171.372C58.5007 176.938 65.7 180.065 73.2068 180.065H243.034V202.323C243.034 210.194 240.051 217.742 234.743 223.308C229.435 228.873 222.236 232 214.729 232H30.7501C23.2433 232 16.044 228.873 10.7359 223.308C5.42776 217.742 2.44568 210.194 2.44568 202.323Z" fill="url(#paint3_linear_721_12660)"/>
<path d="M2.44568 104.817V202.323C2.44568 210.194 5.42776 217.742 10.7359 223.308C16.044 228.873 23.2433 232 30.7501 232H214.729C222.236 232 229.435 228.873 234.743 223.308C240.051 217.742 243.034 210.194 243.034 202.323V180.065H73.2068M2.44568 104.817V83.6129C2.44568 75.742 5.42776 68.1934 10.7359 62.6278C16.044 57.0622 23.2433 53.9355 30.7501 53.9355H44.9023M2.44568 104.817H44.9023M44.9023 53.9355V150.387M44.9023 53.9355V31.6774C44.9023 23.8065 47.8844 16.2579 53.1926 10.6923C58.5007 5.12672 65.7 2 73.2068 2H257.186C264.693 2 271.892 5.12672 277.2 10.6923C282.508 16.2579 285.49 23.8065 285.49 31.6774V150.387C285.49 158.258 282.508 165.807 277.2 171.372C271.892 176.938 264.693 180.065 257.186 180.065H73.2068M44.9023 53.9355H235.957M44.9023 53.9355V104.817M44.9023 104.817V150.387M44.9023 150.387C44.9023 158.258 47.8844 165.807 53.1926 171.372C58.5007 176.938 65.7 180.065 73.2068 180.065" stroke="#FFFEFE" stroke-width="4" stroke-linecap="round" stroke-linejoin="round"/>
<defs>
<linearGradient id="paint0_linear_721_12660" x1="325.251" y1="-46.1985" x2="133.145" y2="405.523" gradientUnits="userSpaceOnUse">
<stop stop-color="#E2A4FF"/>
<stop offset="0.460979" stop-color="#6777FF"/>
<stop offset="0.932292" stop-color="#6FB6DF"/>
</linearGradient>
<linearGradient id="paint1_linear_721_12660" x1="325.251" y1="-46.1985" x2="133.145" y2="405.523" gradientUnits="userSpaceOnUse">
<stop stop-color="#E2A4FF"/>
<stop offset="0.460979" stop-color="#6777FF"/>
<stop offset="0.932292" stop-color="#6FB6DF"/>
</linearGradient>
<linearGradient id="paint2_linear_721_12660" x1="325.251" y1="-46.1985" x2="133.145" y2="405.523" gradientUnits="userSpaceOnUse">
<stop stop-color="#E2A4FF"/>
<stop offset="0.460979" stop-color="#6777FF"/>
<stop offset="0.932292" stop-color="#6FB6DF"/>
</linearGradient>
<linearGradient id="paint3_linear_721_12660" x1="325.251" y1="-46.1985" x2="133.145" y2="405.523" gradientUnits="userSpaceOnUse">
<stop stop-color="#E2A4FF"/>
<stop offset="0.460979" stop-color="#6777FF"/>
<stop offset="0.932292" stop-color="#6FB6DF"/>
</linearGradient>
</defs>
</svg>
