<svg width="24" height="25" viewBox="0 0 24 25" fill="none" xmlns="http://www.w3.org/2000/svg">
<path d="M15.5 7L8.5 11M8.5 14L15.5 18M18 22.5C18.7956 22.5 19.5587 22.1839 20.1213 21.6213C20.6839 21.0587 21 20.2956 21 19.5C21 18.7044 20.6839 17.9413 20.1213 17.3787C19.5587 16.8161 18.7956 16.5 18 16.5C17.2044 16.5 16.4413 16.8161 15.8787 17.3787C15.3161 17.9413 15 18.7044 15 19.5C15 20.2956 15.3161 21.0587 15.8787 21.6213C16.4413 22.1839 17.2044 22.5 18 22.5ZM18 8.5C18.7956 8.5 19.5587 8.18393 20.1213 7.62132C20.6839 7.05871 21 6.29565 21 5.5C21 4.70435 20.6839 3.94129 20.1213 3.37868C19.5587 2.81607 18.7956 2.5 18 2.5C17.2044 2.5 16.4413 2.81607 15.8787 3.37868C15.3161 3.94129 15 4.70435 15 5.5C15 6.29565 15.3161 7.05871 15.8787 7.62132C16.4413 8.18393 17.2044 8.5 18 8.5ZM6 15.5C6.79565 15.5 7.55871 15.1839 8.12132 14.6213C8.68393 14.0587 9 13.2956 9 12.5C9 11.7044 8.68393 10.9413 8.12132 10.3787C7.55871 9.81607 6.79565 9.5 6 9.5C5.20435 9.5 4.44129 9.81607 3.87868 10.3787C3.31607 10.9413 3 11.7044 3 12.5C3 13.2956 3.31607 14.0587 3.87868 14.6213C4.44129 15.1839 5.20435 15.5 6 15.5Z" stroke="#0A0A0A" stroke-width="1.5" stroke-linejoin="round"/>
</svg>
