<svg width="72" height="48" viewBox="0 0 72 48" fill="none" xmlns="http://www.w3.org/2000/svg">
<g id="clients/ sony">
<g id="Vector">
<path d="M19.5485 32.3364C19.715 32.3626 19.9113 32.3374 19.9637 32.3122C20.0053 32.2919 19.9556 32.272 19.7264 32.2778C19.7436 32.1584 19.5556 32.2898 19.5485 32.3364ZM21.8631 28.4744C21.5849 28.439 21.3041 28.4807 21.028 28.5134L20.6213 28.4926C20.4354 28.6928 21.0987 28.6328 21.1284 28.6262C21.1805 28.6154 21.2609 28.6164 21.3499 28.6176C21.5573 28.6203 21.8112 28.6229 21.8631 28.4744ZM23.0506 29.4848C23.0788 29.0666 22.4689 29.3768 22.5259 29.3996C22.5895 29.426 22.9755 29.4863 23.0506 29.4848ZM26.3155 30.3152C26.3668 30.2987 26.4439 30.3076 26.5212 30.3165C26.6674 30.3333 26.8147 30.3501 26.7901 30.196C26.5826 30.1856 26.4122 30.2132 26.3155 30.3152ZM28.2477 30.3062C28.1943 30.1832 28.1701 30.1184 27.9398 30.1334C27.8662 30.116 27.7905 30.0464 27.696 30.0488C27.5889 30.0524 27.511 30.083 27.4494 30.1367C27.2821 30.11 27.081 30.1832 27.0281 30.2552C27.1506 30.2339 27.2601 30.2559 27.3609 30.2778C27.4762 30.3031 27.5801 30.3281 27.6792 30.2888C27.8258 30.2306 28.1289 30.1598 28.2742 30.3152L28.2477 30.3062ZM31.1166 10.3232C31.1182 10.4771 31.5037 10.6488 31.5393 10.4537C31.4424 10.4762 31.3194 10.3757 31.1638 10.2752C31.0076 10.1742 30.8183 10.0731 30.5895 10.0971C30.7676 10.1779 30.9046 10.2854 31.108 10.2875L31.1166 10.3232ZM31.4799 37.6886C31.3416 37.6591 31.0716 37.7853 31.2422 37.8674C31.2599 37.7457 31.4234 37.7642 31.4799 37.6886ZM32.0141 5.93451C31.9564 5.94004 31.8974 5.92406 31.8426 5.90809C31.7306 5.87522 31.6351 5.84265 31.5988 5.99379C31.6567 5.98888 31.715 6.00516 31.7694 6.02114C31.8822 6.05462 31.9776 6.08811 32.0141 5.93451ZM32.6675 37.9267C32.395 37.9736 32.0189 37.9119 31.9548 38.1644C32.1057 38.2114 32.6675 38.1051 32.6675 37.9267ZM33.0829 3.37737C33.0212 3.38598 32.9663 3.37031 32.9188 3.35464C32.8271 3.32485 32.7622 3.29473 32.7263 3.43697C32.7645 3.42499 32.8214 3.43144 32.8787 3.43789C32.9778 3.44926 33.0779 3.46063 33.0829 3.37737ZM33.2015 37.8071C33.0653 37.7927 32.9788 37.8231 32.9641 37.9267C33.0999 37.9436 33.1863 37.9141 33.2015 37.8071ZM35.5762 37.6886C35.6674 37.5427 36.0632 37.7012 36.051 37.4511C35.8479 37.448 35.4469 37.5571 35.5762 37.6886ZM36.1103 2.90152C36.0683 2.91627 36.0213 2.89261 35.9766 2.86926C35.9072 2.83271 35.8436 2.79615 35.8132 2.90152C35.8507 2.93654 36.0953 3.04314 36.1103 2.90152ZM36.407 37.394C36.5874 37.2351 37.0569 37.369 37.1193 37.0941C36.8548 37.111 36.328 37.2656 36.407 37.394ZM36.9414 35.7855C36.973 35.7304 36.9931 35.6709 37.0007 35.6079C36.8951 35.6079 36.7961 35.6432 36.8224 35.7855C36.8626 35.7855 36.9018 35.7855 36.9414 35.7855ZM36.3477 2.78294C36.6124 2.81213 37.097 3.01948 37.2384 2.90152C37.1702 2.82964 36.8242 2.67542 36.5607 2.71996C36.3233 2.64931 36.1153 2.66621 36.1103 2.78294C36.1893 2.78294 36.2686 2.78294 36.3477 2.78294ZM37.2976 0.403984C37.266 0.403984 36.955 0.365584 36.9414 0.463888C36.9661 0.455901 37.0145 0.462351 37.0679 0.468495C37.171 0.480169 37.2926 0.49215 37.2976 0.403984ZM38.1288 2.90152C38.1434 2.74577 37.7624 2.68095 37.7131 2.78294C37.7927 2.78079 37.8354 2.8152 37.8777 2.8496C37.9337 2.89538 37.9891 2.94115 38.1288 2.90152ZM37.6536 0.642369C37.7834 0.622093 37.8953 0.637149 37.993 0.652201C38.1482 0.675856 38.2673 0.699818 38.3656 0.582775C38.1359 0.533316 37.8019 0.466343 37.6536 0.642369ZM38.4845 2.72334C38.3386 2.71597 38.2372 2.7556 38.1878 2.84223C38.3362 2.85206 38.4773 2.85452 38.4845 2.72334ZM39.3752 0.582775C39.3166 0.592913 39.2147 0.564958 39.1053 0.53731C38.9188 0.489694 38.7112 0.442077 38.6624 0.582775C38.9895 0.590148 39.1053 0.773546 39.3752 0.582775ZM40.7405 36.3209C40.7332 36.2444 40.8612 36.2004 40.7997 36.0831C40.7675 36.1227 40.5603 36.2641 40.7405 36.3209ZM41.6904 35.7855C41.8501 35.7099 42.0822 35.6733 42.1651 35.4887C41.7846 35.5655 41.4228 35.7353 41.1561 36.0236C41.3646 36.0211 41.5138 35.8706 41.6904 35.7855ZM45.9044 1.71235C45.7839 1.73293 45.6769 1.67364 45.5834 1.61405C45.4739 1.54462 45.3834 1.47519 45.3114 1.53387C45.5119 1.60575 45.7419 1.95749 45.9044 1.71235ZM47.006 32.9558C46.9591 32.7481 47.1446 32.7393 47.2697 32.5745C47.0888 32.6154 46.4929 33.2058 46.4696 33.3785C46.4341 33.6406 45.6297 33.9843 45.4892 34.2396C45.5153 34.2015 45.5438 34.1652 45.5754 34.1312C45.5499 34.1456 45.2963 34.5581 45.2522 34.4774C45.1724 34.478 44.9332 34.5944 44.7201 34.7855C44.5852 34.8728 44.4788 34.8986 44.4806 34.9533C44.6327 34.9287 44.7229 34.8666 44.8652 34.8061C45.0117 34.7438 44.9903 34.6583 45.074 34.5963C45.0528 34.611 45.3436 34.4762 45.4294 34.3886C45.6539 34.1585 45.833 34.1189 46.0645 33.8962C46.1942 33.7712 46.3871 33.6375 46.3951 33.5749C46.469 33.2679 46.7162 33.1393 46.9594 32.9788L47.006 32.9558ZM55.6402 12.2379C55.6702 12.0505 55.5436 11.8189 55.4666 11.6576C55.3486 11.4116 55.485 11.2841 55.3302 11.0592C55.3762 11.3689 55.4789 12.076 55.6402 12.2379ZM55.7785 13.1577C55.7911 12.8404 55.7708 12.7473 55.6997 12.5946C55.5681 12.8397 55.6497 13.0038 55.7785 13.1577ZM55.8181 15.2703C55.8101 15.1241 55.807 15.0193 55.7491 14.8114C55.6745 14.5432 55.6252 14.2796 55.577 14.005C55.4924 13.5242 55.4436 13.041 55.3338 12.5691C55.2851 12.359 55.2216 12.1464 55.1618 11.9406C55.0873 11.6841 55.0814 11.4233 54.9499 11.183C54.8134 10.9327 54.7892 10.4319 54.4528 9.97818C54.4641 10.2497 55.0057 10.7916 54.631 10.9892C54.5264 11.0128 54.4338 11.0052 54.1572 10.0906C54.0434 9.79694 53.7873 9.60493 53.752 9.26456C53.5058 9.20434 53.4524 8.87072 53.297 8.69777C53.2286 8.62128 53.013 8.48427 53.0578 8.35709C53.0697 8.32975 53.2129 8.31991 53.1816 8.24864C53.139 8.24281 53.0955 8.24649 53.0562 8.25018C52.9397 8.26093 52.8621 8.27199 52.9569 8.03176C53.024 7.86372 52.3003 7.76081 52.5536 7.53994C52.595 7.51966 52.6306 7.5427 52.6594 7.56574C52.695 7.59461 52.7201 7.62319 52.733 7.56728C52.5769 7.4358 52.4242 7.37251 52.2617 7.24993C52.0497 7.08988 52.1338 7.02384 52.0065 6.86256C51.9458 6.80142 51.7425 6.8684 51.8053 6.65367C51.7216 6.56919 51.4192 6.25891 51.6627 6.29116C52.1647 6.53723 52.6241 7.17867 52.9817 7.55253C53.1261 7.70367 53.0694 7.75344 53.2617 7.89782C53.408 8.00688 53.5616 8.14328 53.6248 8.31992C53.6821 8.48181 53.8459 8.90698 54.0317 8.88363C54.048 8.84676 54.0207 8.76597 53.9713 8.66859C53.8695 8.72112 53.7689 8.24096 53.5322 8.06371C53.1231 7.80904 52.9958 7.29602 52.5536 7.06439C52.3696 6.73108 51.9893 6.40022 51.7593 6.12682C51.5943 5.93113 51.3662 5.73268 51.1254 5.63161C51.245 5.48139 51.2135 5.44698 51.0715 5.41472C51.0534 5.56402 50.7596 5.35144 50.6924 5.26758C50.6372 5.27157 50.6642 5.19569 50.6725 5.11981C50.6811 5.04025 50.6697 4.96099 50.5228 4.97328C50.349 4.98833 50.2714 4.60924 50.0819 4.51647C49.8997 4.42707 49.4501 4.56194 49.3867 4.2999C49.3327 4.07994 49.4449 4.12664 49.5645 4.17333C49.6562 4.20927 49.7522 4.24522 49.7807 4.16043C49.6099 4.0483 49.4345 3.94508 49.2781 3.81206C49.0343 3.60378 48.9687 3.51684 48.6859 3.36939C48.5289 3.28767 48.3921 3.17462 48.2704 3.04744C48.071 2.84008 47.9511 2.82257 47.7257 2.67204C47.5951 2.5851 47.4844 2.47206 47.3289 2.42598C47.2145 2.42874 47.2783 2.79093 47.0916 2.52612C46.918 2.27944 46.9422 2.28036 46.669 2.12123C46.5304 2.04074 46.3203 1.85059 46.1418 1.89053C46.3286 2.12461 46.6714 2.19496 46.795 2.48557C46.6466 2.44471 46.4859 2.4269 46.4387 2.60415C46.2746 2.41461 46.0286 2.33197 45.7861 2.30709C45.5742 2.04075 45.6852 2.13905 45.4303 2.1882C45.2052 1.88776 44.9982 1.39993 44.6588 1.71235C44.5858 1.56735 44.5168 1.53325 44.3615 1.59315C44.4029 1.37873 44.1614 1.45491 44.0647 1.35569C44.0506 1.45491 44.2363 1.65152 44.0647 1.71235C43.9474 1.72402 43.8446 1.68839 43.7857 1.5821C43.6775 1.38579 43.7209 1.00579 43.4118 0.999029C43.4841 1.09672 43.4627 1.16861 43.3523 1.20056C43.1768 1.25125 43.2546 1.2918 43.2402 1.45553C43.2271 1.60975 42.9913 1.52066 42.9719 1.42112C42.9426 1.27152 43.0907 1.15416 42.9968 0.999029C43.1671 1.01777 43.2295 0.948958 43.2113 0.879838C43.1927 0.810104 43.0919 0.740062 42.9366 0.760951C42.9917 0.753579 42.9478 0.789521 42.8835 0.825771C42.8063 0.869086 42.6994 0.912709 42.6994 0.880146C42.7527 0.874309 42.7929 0.894277 42.8182 0.939743C42.6485 1.04296 42.809 1.0875 42.8182 1.2368C42.6992 1.12775 42.4526 1.16277 42.462 0.939743C42.4622 0.93452 42.6781 0.257449 42.4249 0.487542C42.3873 0.542224 42.3688 0.602436 42.3688 0.669098C42.3543 0.763716 42.3234 0.76218 42.2885 0.760644C42.2577 0.759415 42.2241 0.758186 42.1957 0.822391C42.1116 1.01316 42.1975 1.0531 42.1651 1.2368C42.0271 1.18335 41.7743 1.05218 41.6348 1.17199C41.6145 1.31422 41.5534 1.33695 41.4509 1.23957C41.3362 1.2067 41.1421 1.20271 41.0966 1.05832C41.1266 1.05771 41.1616 1.05986 41.1993 1.0617C41.3143 1.06815 41.4515 1.0746 41.5279 1.00118C41.7045 0.832222 41.4155 0.827922 41.3352 0.845125C41.1173 0.892434 40.8163 1.12775 40.6809 0.820549C40.9385 0.825157 40.7997 0.711185 40.9187 0.582775C40.9539 0.51089 41.0074 0.536697 41.0614 0.562502C41.1196 0.59015 41.1783 0.617796 41.2152 0.523486C41.1966 0.46819 41.132 0.470337 41.0677 0.472487C40.9973 0.474945 40.9273 0.477404 40.9187 0.403984C40.9085 0.339164 40.9642 0.339781 41.0184 0.340702C41.0537 0.34101 41.0884 0.341623 41.104 0.324113C41.2425 0.170513 40.7442 0.209221 40.7476 0.251922C40.7687 0.279877 40.7815 0.310899 40.786 0.345306C40.6722 0.442995 40.5323 0.316434 40.3765 0.189867C40.2144 0.0583858 40.0351 -0.0730986 39.8499 0.0476311C40.0302 0.0872599 40.297 0.109072 40.3245 0.345002C40.2613 0.357597 40.1815 0.342546 40.1 0.327493C39.9547 0.30046 39.804 0.273731 39.7313 0.403984C40.0484 0.467574 40.477 0.421492 40.7405 0.642369C40.6201 0.737908 40.4324 0.723784 40.2596 0.709653C40.1759 0.702894 40.0957 0.695829 40.0283 0.701665C40.0352 0.783381 40.075 0.842974 40.1466 0.880146C39.7495 0.905336 39.5375 1.07675 39.1376 0.999029C38.7191 0.921614 38.2865 0.855877 37.832 0.820549C37.7658 1.03958 38.8329 0.968928 38.9006 1.17752C38.7208 1.26353 38.5402 1.14556 38.3656 1.11822C38.3731 1.40361 38.7127 1.34832 38.8407 1.53387C38.655 1.55813 38.4731 1.52496 38.2935 1.47488C38.178 1.4927 38.017 1.43648 37.8418 1.37996C37.6437 1.31637 37.4274 1.25247 37.2384 1.2964C37.5218 1.39993 37.7949 1.52803 38.0691 1.65306C37.6846 1.55537 37.2187 1.60729 36.8635 1.41867C36.7194 1.34187 36.6149 1.26691 36.4469 1.32128C36.4036 1.33541 36.3134 1.31822 36.2308 1.30101C36.1515 1.28442 36.079 1.26783 36.0608 1.27889C36.0171 1.30623 36.9324 1.52619 37.0696 1.55537C37.2898 1.60268 38.209 1.65798 38.0099 1.95043C38.211 1.97347 38.4055 2.02907 38.6034 2.06901C38.3997 2.3074 39.2276 2.26224 39.3429 2.28006C39.713 2.3372 40.0646 2.46899 40.3842 2.66375C40.2812 2.64808 40.2355 2.68709 40.1939 2.72611C40.143 2.77372 40.0982 2.82134 39.9627 2.76942C39.7226 2.67819 39.8112 2.64931 39.6447 2.7854C39.6022 2.82012 39.1286 2.58633 39.0446 2.57036C38.8064 2.52643 38.5468 2.50492 38.3066 2.54486C38.5208 2.60814 38.934 2.56974 39.0188 2.84223C38.8801 2.84223 38.7421 2.84223 38.6034 2.84223C38.6855 3.01211 38.6222 3.01119 38.5379 3.01058C38.475 3.00996 38.4001 3.00935 38.3656 3.08C38.3761 3.05727 38.557 3.11902 38.4845 3.19889C38.2845 3.18199 38.0589 3.19275 37.891 3.31808C37.8784 3.22808 37.64 3.01764 37.5472 3.09198C37.4585 3.16325 36.7527 3.2035 36.6394 3.08185C36.3926 2.81827 36.4604 3.15895 36.3669 3.26586C36.2063 3.44957 36.1297 3.39796 35.9423 3.34266C35.7939 3.29873 35.6422 3.32392 35.4906 3.34911C35.3803 3.36724 35.2698 3.38567 35.1607 3.37737C34.8249 3.35372 34.5832 3.19121 34.2102 3.25849C34.5781 3.4041 34.9664 3.48367 35.3384 3.61515C35.2626 3.71314 35.1659 3.68273 35.0703 3.65232C34.9918 3.62744 34.9138 3.60224 34.8486 3.64863C34.6589 3.78441 35.1032 3.84739 35.1337 3.91835C35.1264 3.90053 34.3425 3.83295 34.2102 3.79363C33.9708 3.72635 33.6853 3.38352 33.3795 3.55586C33.4009 3.74847 34.0181 3.78073 34.1515 4.0314C34.1002 4.00775 33.9239 3.88487 33.9136 4.0314C34.2354 4.12878 34.5741 4.21019 34.8635 4.38837C34.7774 4.40926 34.7109 4.3853 34.6439 4.36134C34.5838 4.33952 34.5233 4.31802 34.4483 4.32877C34.3291 4.6925 35.7649 4.4919 35.6943 4.92351C35.5323 4.9358 34.4459 4.79879 34.4408 4.78404C34.4805 4.89617 34.8164 4.78742 34.8635 4.9828C34.8099 4.97727 34.7704 4.99693 34.7448 5.0427C34.8077 5.05069 35.2875 5.44421 35.2941 5.42824C35.2871 5.44667 34.5956 5.36496 34.5466 5.33731C34.4595 5.28785 34.4068 5.29614 34.3554 5.30475C34.3044 5.31304 34.2548 5.32133 34.1743 5.2731C34.0655 5.20859 33.8036 5.06021 33.6766 5.16128C33.8985 5.16436 33.9716 5.38769 34.1883 5.44667C34.4383 5.51487 34.6777 5.63161 34.8635 5.81562C34.7397 5.79842 34.6409 5.83805 34.5669 5.93451C34.631 5.96431 35.116 6.09487 34.9824 6.23157C34.8072 6.09149 34.7814 6.2884 34.923 6.35076C34.6069 6.37196 34.3505 6.17658 34.0424 6.16275C33.6542 6.14555 33.327 5.76923 32.9043 5.81562C32.9705 5.85709 33.0982 5.92191 33.1193 6.00547C33.1172 5.99533 32.3259 5.81562 32.1926 5.87491C32.4026 6.05954 32.6966 6.10347 32.9043 6.29116C32.8036 6.29608 32.6602 6.23618 32.5123 6.17627C32.2975 6.08934 32.0729 6.0027 31.9548 6.11299C32.1629 6.09394 32.339 6.20177 32.6489 6.27704C33.1267 6.39316 33.6647 6.5572 33.6766 6.76702C33.4182 6.74429 33.0514 6.51695 32.8449 6.64813C33.3503 6.86931 34.2212 7.01892 33.9728 7.06439C33.883 7.17068 33.6229 7.04534 33.5198 7.02752C33.3573 6.99926 33.3548 7.05118 33.3475 7.1031C33.3404 7.15409 33.3288 7.20539 33.1538 7.17928C33.0346 7.16177 32.568 6.93813 32.5481 7.18328C32.3789 7.14549 32.0637 6.92523 31.8955 7.06439C31.9714 7.05149 32.0292 7.07729 32.0674 7.14303C32.0756 7.16915 31.9589 7.15624 31.8202 7.14303C31.5292 7.116 31.1407 7.08866 31.5988 7.42105C31.9482 7.68923 32.5675 7.6622 32.6675 7.8969C32.4398 7.91626 32.2193 7.83915 32.0001 7.76235C31.7291 7.66742 31.4604 7.5725 31.1832 7.65882C31.2091 7.84283 31.4539 7.83177 31.4799 8.01579C31.2666 8.01087 30.964 7.78631 30.7676 7.95619C30.9976 8.08921 31.2408 8.19703 31.4799 8.31316C31.1016 8.35279 32.0086 8.72112 32.0929 8.78102C32.1089 8.90851 31.9723 8.9039 31.8383 8.8993C31.7387 8.89592 31.6406 8.89253 31.6078 8.94322C31.5037 9.25657 33.1392 9.28329 32.4889 9.7997C32.6243 9.79263 32.7432 9.83226 32.8449 9.91889C32.285 9.8553 31.8024 9.54779 31.1832 9.56192C31.3312 9.7232 31.6038 9.71829 31.7174 9.91889C31.6988 9.92626 31.6576 9.92104 31.6115 9.91551C31.5219 9.90507 31.4141 9.89462 31.4204 9.97818C31.6108 10.0928 31.8264 10.157 32.0141 10.2755C31.971 10.2832 31.9286 10.2719 31.8896 10.2605C31.8133 10.2384 31.7498 10.2163 31.7174 10.3348C31.9306 10.443 32.2283 10.4755 32.3702 10.6918C32.3036 10.7105 32.2244 10.6854 32.1454 10.6602C32.0284 10.623 31.9116 10.5855 31.8361 10.6918C32.0021 10.8257 32.301 10.7403 32.4297 10.9293C32.3562 11.0101 32.2592 11.0565 32.3702 11.1674C32.3166 11.1621 32.2648 11.1701 32.2154 11.191C32.2405 11.1637 32.2001 11.215 32.1562 11.2663C32.1151 11.3142 32.0708 11.3621 32.0734 11.3458C32.3965 11.4644 32.6889 11.653 33.0281 11.7277C33.3782 11.8045 33.6538 12.0447 34.0066 12.1682C34.5938 12.3734 35.2284 12.4453 35.8128 12.6419C36.0444 12.7202 36.231 12.9009 36.461 12.9912C36.8416 13.1408 37.2409 13.2385 37.6244 13.3813C37.8218 13.4548 38.0856 13.5389 38.2581 13.6618C38.5238 13.6618 38.5926 13.6336 38.8382 13.7497C39.2186 13.9297 39.6297 14.0854 40.008 14.2698C40.3162 14.424 40.6159 14.6409 40.9403 14.7631C42.0044 15.1634 42.8154 16.2297 43.1414 17.3189C43.3493 18.0128 43.3555 18.8782 43.0741 19.5514C42.8094 20.183 42.353 20.729 42.0745 21.3286C41.9399 21.6185 41.7522 21.743 41.5712 21.99C41.4398 22.1699 41.3308 22.6022 41.0966 22.6742C41.0157 22.6988 40.8163 22.9874 40.7124 23.0606C40.4312 23.2594 40.1684 23.5436 39.9091 23.7737C39.7388 23.9354 39.46 24.1562 39.2566 24.3092C39.1152 24.4178 38.9673 24.3974 38.8361 24.5384C38.7149 24.6683 38.6079 24.7865 38.4636 24.8926C37.8379 25.3526 37.1319 25.6766 36.4307 26.0002C35.5263 26.4176 34.5376 26.7184 33.5417 26.8724C33.5654 26.9669 33.4352 26.9519 33.3067 26.9369C33.2444 26.9296 33.1824 26.9224 33.1387 26.9276C32.914 26.9528 32.6894 26.9714 32.4662 26.981C31.5887 27.0218 30.7189 27.0668 29.8412 27.0758C29.7328 27.0767 29.6249 27.074 29.5173 27.0712C29.2443 27.0641 28.9738 27.0571 28.7031 27.1124C28.5258 27.2177 28.306 27.1803 28.0884 27.1427C27.8774 27.1062 27.6688 27.0699 27.5028 27.1636C27.8838 27.1898 28.2503 27.2846 28.631 27.3152C29.1464 27.361 29.6591 27.2828 30.174 27.2828C30.5997 27.2828 31.0228 27.3236 31.4478 27.3386C31.5255 27.3412 31.6239 27.3225 31.7274 27.3038C31.9524 27.2631 32.201 27.2223 32.3108 27.4016C32.1587 27.4298 32.081 27.5162 31.9583 27.5732C31.8133 27.64 31.6229 27.6764 31.4216 27.683C31.0182 27.6962 30.6169 27.7058 30.214 27.7298C29.4445 27.7754 28.6234 27.9452 27.859 27.9364C27.4982 27.9339 27.1373 27.9602 26.7765 27.9865C26.4293 28.0118 26.082 28.0371 25.735 28.0367C25.3725 28.0367 24.2018 27.823 23.8819 28.0556C23.943 28.0678 24.0298 28.0577 24.1213 28.0477C24.2818 28.0301 24.457 28.0125 24.5348 28.1147C24.0138 28.1534 23.5004 28.2371 22.9913 28.3526C23.4599 28.5557 23.2368 28.5938 22.785 28.6649C22.5926 28.6952 21.5051 28.9499 21.4198 28.8728C21.5188 28.9622 21.9664 28.9115 22.0868 28.87C22.23 28.8213 22.3621 28.8479 22.4938 28.8746C22.6175 28.8995 22.7408 28.9245 22.8727 28.8872C22.9031 29.2654 23.5442 29.0426 23.763 29.1848C23.7468 29.1807 23.5961 29.2274 23.4506 29.2741C23.3074 29.32 23.1693 29.366 23.1693 29.3636C23.3541 29.5089 23.6281 29.4505 23.8973 29.392C24.2001 29.3263 24.4967 29.2605 24.6534 29.4848C24.5391 29.5694 24.3914 29.5532 24.2442 29.5371C24.0902 29.5202 23.9368 29.5034 23.822 29.6012C25.0074 29.6696 26.1964 29.729 27.3831 29.6852C27.6404 29.6752 27.7458 29.6234 27.8878 29.7722C27.9952 29.885 28.2084 29.8463 28.3095 29.7566C28.442 29.6384 28.5331 29.6636 28.7042 29.6876C28.7999 29.701 28.8853 29.6907 28.9579 29.6805C29.1251 29.6569 29.2248 29.6331 29.2248 29.8988C29.3425 29.8715 29.6069 29.7506 29.6398 29.9606C29.3116 30.0737 28.8336 30.0794 28.5168 30.0812C28.436 30.077 28.415 30.1148 28.4524 30.196C28.6154 30.1832 28.7784 30.1754 28.9408 30.173C29.2299 30.1676 29.5182 30.1022 29.8063 30.1106C30.0436 30.11 29.9164 30.1856 29.9716 30.1874C30.4325 30.2024 30.9121 30.1409 31.3949 30.0795C32.0441 29.9969 32.6987 29.9144 33.3203 30.0176C33.0757 30.493 32.024 30.489 31.3693 30.4851C31.2398 30.4844 31.1258 30.4835 31.0368 30.4864C30.7805 30.4946 30.5197 30.5717 30.2548 30.5684C30.0678 30.566 29.8746 30.4796 29.6994 30.4934C29.5081 30.5108 29.3521 30.6368 29.1651 30.6716C29.1038 30.6838 29.0306 30.6761 28.9561 30.6686C28.804 30.653 28.6463 30.6374 28.5714 30.7904C28.7834 30.7158 28.8334 30.7455 28.9757 30.775C29.0945 30.7999 29.2779 30.8248 29.6743 30.7886C29.9913 30.631 30.4543 30.7811 30.7676 30.9095C30.3017 31.0442 29.9906 31.3866 29.4897 31.4656C29.0199 31.5397 28.6069 31.7565 28.1465 31.8401C27.1948 32.0131 24.5732 32.3215 25.0095 31.9802C25.1711 31.9254 25.2038 31.9261 25.2886 31.852C24.8134 31.9387 24.3507 31.9983 23.8693 32.0373C23.7521 32.1507 23.5253 32.1319 23.2989 32.1135C23.1866 32.1043 23.0742 32.095 22.9755 32.1021C22.533 32.2508 21.2926 32.2068 20.9705 32.3037C20.9633 32.3334 21.0468 32.3319 21.1461 32.3307C21.2768 32.3288 21.4347 32.327 21.4479 32.3964C21.1556 32.4717 20.8568 32.4677 20.5578 32.464C20.367 32.4615 20.1762 32.4591 19.9869 32.4772C19.3699 32.5361 20.1314 32.5682 19.9637 32.7533C19.936 32.7564 19.8774 32.7561 19.8042 32.7555C19.5688 32.7543 19.1827 32.7527 19.1918 32.8723C19.7605 32.7592 20.4256 32.8016 20.9732 32.9906C20.8854 33.1039 20.7078 33.1125 20.5817 33.1349C20.3246 33.1812 20.5433 33.3715 20.3792 33.4071C20.163 33.4433 19.9804 33.5526 19.7858 33.6452C19.6133 33.6621 19.4022 33.6621 19.2512 33.7641C19.4318 33.8466 19.0754 33.8655 19.0733 33.945C19.1094 33.9536 19.1722 33.9453 19.2406 33.9374C19.3687 33.922 19.5167 33.9069 19.5485 34.0016C19.5195 34.0199 19.4498 34.054 19.3677 34.0946C19.4809 34.2956 19.0851 34.1985 18.9372 34.309C18.9592 34.4393 18.8374 34.438 18.7139 34.4366C18.5998 34.4352 18.4845 34.434 18.4799 34.5366C18.5928 34.5699 18.7176 34.5431 18.8409 34.5164C18.9805 34.4856 19.1184 34.4553 19.2345 34.5124C19.5304 34.6586 18.9231 34.721 18.8951 34.7745C19.4039 34.847 18.8483 34.8966 18.8951 35.1317C18.9308 35.1376 18.9796 35.117 19.03 35.0961C19.1186 35.0598 19.2126 35.0232 19.2512 35.1317C19.1553 35.2159 18.9494 35.1719 18.8951 35.3102C18.9755 35.3163 19.1003 35.3031 19.0733 35.4312C18.9102 35.4186 18.6727 35.4236 18.5985 35.6079C19.5341 35.4844 20.5022 35.5167 21.4454 35.4303C22.3153 35.3511 23.3026 35.1889 24.1773 35.1851C24.2552 35.1849 24.327 35.1941 24.2975 35.2509C24.5204 35.379 23.4776 35.2863 23.2769 35.5034C23.5766 35.4665 23.8856 35.3532 24.1785 35.4887C23.8689 35.586 23.5978 35.8106 23.2536 35.7434C22.7858 35.6514 22.377 35.6705 21.9196 35.7688C21.6853 35.8192 21.4477 35.8131 21.2083 35.8066C21.0177 35.8017 20.8259 35.7968 20.6334 35.8204C20.174 35.8773 19.7152 35.9102 19.2512 35.9071C19.2798 36.0929 19.4134 36.0681 19.5537 36.0435C19.6622 36.0244 19.7744 36.0051 19.8451 36.0831C19.6537 36.1467 19.4507 36.2269 19.311 36.3805C19.4815 36.3842 19.6562 36.3402 19.8314 36.296C20.0963 36.2296 20.3623 36.163 20.6165 36.2617C20.451 36.6493 19.9466 36.422 19.7264 36.7368C19.7891 36.7494 19.8793 36.7347 19.9727 36.7199C20.1062 36.6991 20.246 36.6778 20.3199 36.7368C20.3126 36.9318 20.0585 36.8646 19.9637 36.9752C20.1959 37.0968 20.4691 36.9458 20.1419 37.2723C20.2352 37.2935 20.3985 37.2741 20.5769 37.2545C20.928 37.2164 21.3378 37.178 21.3885 37.4511C21.1844 37.4047 20.9715 37.4304 20.765 37.4419C20.4105 37.4618 20.5512 37.5697 20.7612 37.5638C20.9391 37.5588 20.8148 37.7503 20.716 37.7807C20.5614 37.8264 20.2283 37.7453 20.1419 37.9267C20.2899 37.9635 20.3599 37.8674 20.4978 37.8674C20.3692 38.0771 20.435 38.1244 20.6953 38.0096C20.8669 37.9933 21.0389 37.9862 21.2113 37.9887C21.647 37.9933 22.081 38.0409 22.5164 38.0454C22.8176 38.0501 23.1127 38.0338 23.4072 38.0179C23.7722 37.9976 24.1364 37.9776 24.5102 37.997C25.1272 38.0277 25.8542 37.9832 26.4676 37.9052C26.7167 37.8735 28.0567 37.5697 28.0963 38.0454C28.0454 38.1008 27.9644 38.0891 27.8778 38.0775C27.7903 38.0655 27.6971 38.0538 27.6231 38.111C27.4443 38.251 27.078 38.1644 26.8715 38.1551C26.681 38.1462 25.5753 38.2483 25.5441 38.4621C26.1561 38.417 26.6758 38.4759 27.2761 38.3136C27.453 38.2658 27.4561 38.3087 27.4683 38.352C27.4774 38.3847 27.4915 38.4172 27.5901 38.4105C27.8395 38.3924 28.056 38.3508 28.2941 38.2719C28.5816 38.1752 28.826 38.1524 29.128 38.1669C29.2098 38.1705 29.3346 38.1315 29.4628 38.0925C29.6395 38.0385 29.8226 37.9847 29.9083 38.0431C29.9457 38.0679 30.1047 38.0196 30.2173 38.0123C30.5557 37.9875 31.038 37.9251 31.1241 37.8071C30.9599 37.7116 30.8115 37.7518 30.6284 37.7921C30.5143 37.817 30.3867 37.8422 30.2334 37.8345C30.0124 37.8873 29.9206 38.1551 29.7539 37.8879C29.7336 37.8556 29.6301 37.6947 29.7583 37.7478C29.9219 37.7512 30.0218 37.7085 30.1019 37.5632C30.1524 37.3288 30.2238 37.4022 30.3289 37.4757C30.3809 37.5122 30.4411 37.5484 30.5112 37.5476C30.5245 37.4354 30.5447 37.1939 30.7717 37.3325C31.0144 37.2083 31.4341 37.2132 31.6435 37.0963C31.821 36.9962 32.0566 37.0566 32.2516 36.9602C32.5522 36.8115 32.8419 36.7894 33.1525 36.6803C33.3844 36.5983 33.5821 36.4417 33.8329 36.4263C34.1672 36.4044 34.2752 36.1461 34.7153 36.1987C35.3001 36.2684 35.5646 35.7412 36.08 35.6205C36.3546 35.4565 36.9953 35.3072 37.4599 35.178C38.0249 35.0208 38.5315 34.6851 39.0784 34.4774C39.3297 34.385 39.4004 34.3988 39.6124 34.2396C39.686 34.0627 39.8585 34.0896 40.0574 33.9935C40.188 33.9441 40.3002 33.8169 40.5264 33.8C40.698 33.7874 41.1541 33.5526 41.2745 33.6452C40.993 33.9662 40.5896 34.1361 40.2169 34.3232C39.7307 34.5656 39.2839 34.901 38.7642 35.0725C38.4372 35.1806 38.1108 35.4543 37.7754 35.6229C37.3393 35.8426 36.8072 36.0815 36.3163 36.1304C36.3143 36.0272 36.6254 35.8204 36.5256 35.7855C36.355 35.9271 36.1564 36.0315 35.9525 36.1154C35.452 36.3218 34.9159 36.4192 34.4069 36.601C34.1946 36.677 33.9847 36.7672 33.7954 36.8923C33.7056 36.9507 33.6222 37.0179 33.5455 37.0941C33.3765 37.2615 33.2406 37.2014 33.0189 37.2818C32.8101 37.3574 32.6282 37.3359 32.4297 37.394C32.2774 37.5204 31.6982 37.5728 31.5988 37.6886C31.861 37.6685 32.1556 37.5884 32.4348 37.5596C32.6884 37.5344 32.9292 37.5596 33.1219 37.5325C33.512 37.4428 34.1334 37.1061 34.4366 37.35C34.1868 37.4785 33.3144 37.4974 33.3795 37.8674C33.7658 37.7321 34.1239 37.7036 34.4921 37.5165C34.7316 37.4781 35.3436 37.1909 35.4967 37.2606C35.6037 37.3101 35.7492 37.2173 35.9529 37.1242C36.1248 37.0458 36.338 36.9675 36.6044 36.9746C36.9353 36.969 37.4721 36.5762 37.7724 36.6776C37.7111 36.6776 37.3779 36.9218 37.3585 36.9777C37.309 37.1153 38.1715 36.7203 38.2288 36.7024C38.6065 36.5891 39.1608 36.3086 39.3752 36.3805C39.3552 36.5215 39.1951 36.5088 39.1376 36.6183C39.6559 36.476 40.0993 36.1368 40.5596 35.8668C41.0097 35.6036 41.5492 35.4417 41.9591 35.266C42.3789 35.0319 42.7581 34.7247 43.1798 34.5044C43.3832 34.3982 44.3522 33.8037 44.5398 33.8826C44.4232 34.1016 44.112 34.3813 43.8704 34.4598C43.6613 34.5272 43.4535 34.7391 43.2337 34.8696C43.1456 34.9238 42.1708 35.4084 42.2841 35.5476C42.3993 35.3947 42.5541 35.3732 42.7084 35.2863C42.9216 35.1689 43.021 35.0484 43.2414 34.9382C43.6566 34.7298 44.2109 34.4031 44.5987 34.1505C45.2583 33.7428 45.8621 33.1442 46.4034 32.6022C46.5184 32.487 46.6309 32.4152 46.7404 32.2972C46.9996 32.0186 47.3884 31.6773 47.7371 31.3388C47.9815 31.1025 48.1088 30.9934 48.1971 30.7538C48.2744 30.5432 48.5611 30.7286 48.4783 30.8819C48.4022 31.0217 48.2642 31.0826 48.2793 31.2662C48.0824 31.3304 47.4274 31.8975 47.6442 32.1464C47.7659 31.7384 48.0569 31.5734 48.3428 31.2754C48.3891 31.136 48.5859 31.0082 48.7065 30.8963C48.6779 30.7076 48.7368 30.455 48.8724 30.434C49.2033 30.4562 49.2566 30.4106 49.1079 30.2284C49.1079 30.2284 49.0429 30.2002 49.0929 30.1454C49.2146 30.0086 49.5179 29.7968 49.4621 29.6084C49.4259 29.6072 49.4011 29.6358 49.3765 29.6645C49.3505 29.6951 49.3247 29.7257 49.2861 29.72C48.9227 29.6654 49.3554 29.5135 49.3962 29.5016C49.6053 29.4404 49.5795 29.4074 49.5795 29.162C49.5795 28.931 50.0279 28.5194 50.0279 28.295C50.0898 28.331 50.1647 28.4128 50.2211 28.4576C50.2603 28.3817 50.2542 28.2356 50.2928 28.1612C50.6056 27.5651 50.943 27.1148 51.2634 26.5589C51.3619 26.3876 51.5195 26.1428 51.64 26.0326C51.6446 25.922 51.6916 25.8536 51.7805 25.8284C51.7593 25.6934 51.778 25.6562 51.8136 25.5584C51.8366 25.5002 52.0681 24.8882 52.1966 25.0252C52.4647 25.4222 51.7888 26.3968 51.6121 26.7716C51.5247 26.9573 50.6651 28.2004 50.7722 28.2935C50.7887 28.2434 50.8087 28.2434 50.8317 28.2935C50.7381 28.3736 50.21 28.5566 50.2806 28.7906C50.3152 28.9064 49.7436 29.2712 50.1134 29.3312C50.1312 29.1656 50.4373 28.9604 50.4146 28.7669C50.7768 28.5248 50.9786 28.2328 51.1714 27.9314C51.3622 27.6338 51.4502 27.205 51.6667 26.888C51.7207 26.7944 51.7274 26.7044 51.7823 26.5994C51.9722 26.2358 52.2104 25.8104 52.3754 25.4828C52.3828 25.6538 52.1966 26.0738 52.3754 26.2124C52.5711 25.9234 52.5646 25.4528 52.906 25.2848C52.9566 24.8942 53.4362 24.5396 53.3847 24.1898C53.4009 24.2776 53.3706 24.3326 53.293 24.3536C53.0979 24.3476 53.2332 24.0398 53.2617 23.9654C53.3988 23.6162 53.4708 23.284 53.8115 23.0606C53.7852 22.7396 54.0823 22.592 54.1743 22.328C54.3099 21.9376 54.573 21.8335 54.573 21.3884C54.6892 21.374 54.8606 20.9883 54.8588 21.3419C54.857 21.724 54.6681 22.2076 54.4957 22.5524C54.3387 22.8674 54.2047 23.1884 54.0679 23.512C53.9333 23.8292 53.5613 24.2444 53.7404 24.6064C53.7833 24.3206 53.914 23.8484 54.171 23.6258C54.2004 23.6002 54.2268 23.6026 54.2556 23.6049C54.2792 23.6069 54.3044 23.6089 54.3341 23.5954C54.3261 23.6726 54.1326 23.9012 54.2746 23.9522C54.4954 23.5018 54.4439 23.0714 54.8294 22.8224C54.9146 22.3984 55.0373 21.8793 55.2842 21.5144C55.1002 21.5375 54.9965 22.4522 54.7496 22.2875C54.8337 21.6684 55.0551 20.9684 55.2529 20.3738C55.2762 20.2554 55.2786 20.1345 55.3688 20.0565C55.3053 19.8802 55.3412 19.7156 55.3841 19.5376C55.466 19.2014 55.6856 18.8023 55.6402 18.4816C55.5657 18.5501 55.5608 18.7822 55.4001 18.7401C55.3688 18.4431 55.5789 18.1025 55.4807 17.806C55.4409 17.6851 55.4295 17.3102 55.6997 17.2922C55.6917 17.3796 55.6607 17.3934 55.7478 17.3852C55.7322 16.5179 55.8607 15.9833 55.8181 15.2703ZM56.1149 15.2703C56.11 15.0771 56.0855 14.9063 55.9962 14.7948C55.9861 15.0027 56.0134 15.176 56.1149 15.2703ZM56.1744 16.5787C56.229 16.3409 56.2958 15.9618 56.1149 15.8055C56.1594 16.0706 55.9021 16.457 56.1744 16.5787ZM21.9226 34.1822C21.8977 34.3535 21.516 34.3287 21.2829 34.3038C21.1802 34.2928 21.1062 34.282 21.1047 34.2879C21.1073 34.2783 21.6843 34.1558 21.9226 34.1822ZM22.7537 34.1822C22.5578 34.1011 22.8437 33.9234 23.0729 34.0138C23.3735 33.929 23.8564 33.8157 24.0006 33.945C23.6538 34.0906 23.2854 34.2168 22.7537 34.1822ZM25.7219 35.191C25.8399 35.4582 24.7818 35.5148 24.5984 35.449C24.7468 35.3029 24.4611 35.2912 24.3898 35.2633C24.2735 35.1548 24.6061 35.1007 24.8392 35.1347C25.2404 35.0703 25.7062 35.0829 25.7219 35.191ZM33.9728 35.0122C34.0019 35.0171 34.0307 35.0214 34.0594 35.0258C34.1205 35.0819 33.4678 35.3956 33.3856 35.4362C33.3115 35.4724 32.9585 35.5108 32.9744 35.6256C32.9813 35.6733 33.1319 35.8137 33.0235 35.8454C32.8799 35.9569 32.6839 35.9455 32.4893 35.9342C32.3514 35.9261 32.2144 35.9181 32.0976 35.9541C31.9447 36.0005 31.9019 36.0447 31.8786 36.1863C31.8648 36.2733 31.4882 36.3798 31.3923 36.4334C31.1342 36.5774 30.8324 36.5088 30.5635 36.6189C30.3758 36.6963 30.1504 36.7378 29.9244 36.7808C29.5014 36.8625 29.0803 36.9578 28.6549 37.0299C28.2891 37.0904 27.3815 37.3688 27.0466 37.2C27.0418 37.1976 27.1703 37.0311 27.1467 36.9752C26.6906 36.9946 26.0841 37.0754 25.6266 37.0435C25.7345 36.8659 27.5728 36.4708 27.6213 36.5317C27.7898 36.5716 27.9406 36.5264 28.0698 36.4812C28.1732 36.4452 28.2627 36.4094 28.3366 36.4165C28.5591 36.3409 28.7864 36.3426 29.0143 36.3448C29.2127 36.3464 29.4114 36.3482 29.6076 36.2987C29.7988 36.2502 29.9812 36.1878 30.174 36.276C30.292 36.1541 30.4892 36.155 30.6426 36.1154C30.8669 36.0063 31.3645 35.8281 31.6785 35.8503C31.895 35.8434 31.9492 35.7345 31.9798 35.681C32.0789 35.5098 32.4187 35.5701 32.5961 35.5293C33.0767 35.4186 33.5249 35.2144 33.9728 35.0122ZM39.9091 35.6079C40.1496 35.6585 39.6587 35.8355 39.672 35.9642C39.5025 35.896 39.2764 35.999 39.153 36.1071C39.0356 36.1461 38.9032 36.1126 38.7816 36.0831C38.9134 35.8204 39.5515 35.8058 39.9091 35.6079ZM42.376 34.2564C42.6587 34.129 42.9539 34.016 43.2337 33.8826C42.6215 34.4051 41.9277 34.8208 41.2152 35.191C40.7989 34.9846 42.0933 34.384 42.1831 34.3419L42.376 34.2564ZM43.2337 33.8826C43.2574 33.8289 43.2803 33.847 43.2749 33.8651C43.2719 33.8753 43.2598 33.8858 43.2337 33.8826ZM48.5761 30.3152C48.8208 30.3892 48.5537 30.488 48.5166 30.6122C48.1729 30.5552 48.5749 30.416 48.5761 30.3152Z" fill="#0A0A0A"/>
<path d="M44.273 45.2023C44.273 45.2023 44.3812 45.2023 44.6173 45.2023C44.7862 45.2023 44.8206 45.2659 44.8246 45.4142L44.8224 46.9177C44.8224 47.2651 44.6961 47.643 43.7426 47.643C42.8476 47.643 42.8859 47.0258 42.8859 46.9199V45.4124C42.8901 45.257 42.9057 45.2023 43.0766 45.2023C43.3142 45.2023 43.4438 45.2023 43.4438 45.2023V44.8303H41.3295V45.2023C41.3295 45.2023 41.4555 45.2023 41.6912 45.2023C41.8667 45.2023 41.8982 45.2714 41.9 45.4337V46.8744C41.9 47.8316 42.8901 48 43.7426 48C44.6093 48 45.4483 47.8249 45.4483 46.9039L45.4413 45.3479C45.4514 45.2419 45.4848 45.2023 45.6293 45.2023C45.8669 45.2023 46.0068 45.2023 46.0068 45.2023V44.8303H44.273V45.2023ZM49.9407 46.1448C49.8444 46.0981 49.703 46.0573 49.5803 46.0274C49.3393 45.9648 48.7876 45.8923 48.5294 45.8671C48.2598 45.8376 47.7873 45.786 47.6005 45.7271C47.5401 45.7108 47.4245 45.637 47.4245 45.5028C47.4245 45.4057 47.4806 45.3246 47.583 45.257C47.7495 45.1544 48.0878 45.0899 48.4386 45.0899C48.8548 45.0865 49.2065 45.1796 49.4307 45.2801C49.5071 45.3181 49.5957 45.3667 49.6671 45.4213C49.7481 45.4883 49.8579 45.6253 49.8977 45.8136H50.2753V44.7907H49.8579V44.9087C49.8579 44.9483 49.8189 44.9968 49.7404 44.955C49.5531 44.8549 49.0228 44.645 48.3712 44.6426C48.0019 44.6426 47.583 44.7133 47.2285 44.8724C46.8998 45.0178 46.6281 45.2557 46.6281 45.6511C46.6281 46.0044 46.8541 46.205 46.8461 46.1989C46.9427 46.2864 47.0976 46.4299 47.5002 46.5134C47.6799 46.5574 48.0688 46.609 48.4537 46.6507C48.8352 46.6904 49.2059 46.7438 49.3592 46.7804C49.4807 46.8108 49.6825 46.8667 49.6825 47.0928C49.6825 47.3214 49.4687 47.3917 49.4307 47.4049C49.3914 47.4218 49.1369 47.5392 48.6726 47.5392C48.3295 47.5392 47.9216 47.436 47.771 47.384C47.599 47.3214 47.4184 47.2406 47.2509 47.0308C47.2083 46.9825 47.1442 46.8388 47.1442 46.7005H46.7219V47.8756H47.1874C47.1874 47.8756 47.1874 47.7503 47.1874 47.7158C47.1874 47.7017 47.2132 47.6264 47.2865 47.6636C47.3852 47.7066 47.6698 47.8196 47.971 47.8817C48.2145 47.9318 48.3712 47.9677 48.6735 47.9677C49.1725 47.9677 49.4371 47.8888 49.6221 47.836C49.7984 47.784 50.0118 47.6946 50.1842 47.557C50.2802 47.4848 50.4832 47.2909 50.4832 46.9389C50.4832 46.6022 50.3065 46.4069 50.2409 46.3451C50.156 46.2582 50.0511 46.197 49.9407 46.1448ZM52.8724 47.4344C52.8313 47.4234 52.8034 47.3942 52.7933 47.3657L52.7862 47.282L52.7795 45.3626L52.7878 45.2785C52.7982 45.2506 52.827 45.2214 52.8672 45.211L52.9712 45.2041C53.0442 45.2041 53.3569 45.2041 53.3569 45.2041V44.8303H51.2869V45.2041H51.6537L51.7558 45.211C51.7969 45.2214 51.8233 45.2506 51.8362 45.2785L51.8436 45.3626L51.8377 47.282L51.8334 47.3657C51.8181 47.3942 51.7936 47.4234 51.7506 47.4344L51.6494 47.4415H51.2833V47.8147H53.36V47.4415C53.36 47.4415 53.0478 47.4415 52.9736 47.4415L52.8724 47.4344ZM57.6442 46.7527C57.5758 46.9835 57.3409 47.2495 57.1185 47.3552C56.9134 47.4535 56.6469 47.5589 56.2218 47.553L56.1301 47.5502C56.0578 47.5447 55.9878 47.5339 55.9198 47.5207C55.6726 47.4691 55.4444 47.3564 55.2776 47.1908C55.0556 46.965 54.9344 46.6487 54.9344 46.3141C54.9344 45.9734 55.0547 45.6613 55.2776 45.4352C55.5076 45.209 55.8413 45.0899 56.1948 45.0828H56.2602C56.6487 45.0899 56.8759 45.1415 57.167 45.289C57.351 45.3833 57.6092 45.6511 57.6629 45.9258H58.068V44.8201H57.6494V44.9396L57.6166 44.9928C57.5982 45.0054 57.5699 45.0054 57.5325 44.9867C57.3528 44.8914 56.871 44.6371 56.2218 44.6358L56.1488 44.6371H56.1412C55.5076 44.6558 54.8477 44.8801 54.4655 45.2244C54.3751 45.3098 54.296 45.401 54.2303 45.5015C54.0703 45.7436 53.9878 46.0284 53.9878 46.3141C53.9878 46.3417 53.9878 46.3724 53.9893 46.4004C54.0114 46.773 54.1681 47.134 54.4655 47.4031C54.825 47.7281 55.3331 47.925 55.8934 47.9803C56.4288 48.0295 56.9808 47.9453 57.3562 47.7336C57.7291 47.5189 57.987 47.1674 58.0756 46.7767L58.0799 46.7527H57.6442ZM38.8719 44.8303L37.9882 46.7816L37.1054 44.8303H35.1847V45.2041H35.5109C35.7454 45.2041 35.7616 45.3335 35.7616 45.449V47.1924C35.7616 47.3005 35.7691 47.4415 35.6174 47.4415C35.3816 47.4415 35.2145 47.4415 35.2145 47.4415V47.8147H36.8327V47.4415C36.8327 47.4415 36.7502 47.4415 36.5159 47.4415C36.3501 47.4415 36.3399 47.3671 36.3371 47.2009L36.338 45.3018H36.3519L37.4851 47.8147H38.1208L39.2451 45.3018H39.2603L39.2724 47.2009C39.2696 47.3671 39.2603 47.4415 39.0941 47.4415C38.86 47.4415 38.7759 47.4415 38.7759 47.4415V47.8147H40.7385V47.4415C40.7385 47.4415 40.5714 47.4415 40.3332 47.4415C40.1834 47.4415 40.1908 47.3005 40.1908 47.1924L40.1798 45.449C40.1798 45.3335 40.1968 45.2041 40.4319 45.2041H40.7572V44.8303H38.8719ZM26.291 45.2023C26.291 45.2023 26.4404 45.2023 26.6766 45.2023C26.8508 45.2023 26.8824 45.2714 26.8838 45.4337L26.9054 46.6812L24.8596 44.8303H23.3959V45.2041H23.7211C23.9553 45.2041 23.9721 45.3335 23.9721 45.449V47.1924C23.9721 47.3005 23.9792 47.4415 23.8286 47.4415C23.592 47.4415 23.4258 47.4415 23.4258 47.4415V47.8147H25.1454V47.4415C25.1454 47.4415 24.9603 47.4415 24.7253 47.4415C24.5586 47.4415 24.5501 47.3671 24.5471 47.2009V45.7058L26.9054 47.8147H27.5051L27.473 45.4337C27.4777 45.261 27.4862 45.2023 27.6647 45.2023C27.9026 45.2023 28.0411 45.2023 28.0411 45.2023V44.8303H26.291V45.2023ZM17.2332 46.1257C17.135 46.081 16.9865 46.0256 16.863 45.9979C16.6212 45.9374 16.0801 45.8634 15.8217 45.8376C15.5504 45.8084 15.0771 45.7682 14.8907 45.7108C14.8326 45.6944 14.715 45.637 14.715 45.5028C14.715 45.4057 14.7704 45.3246 14.8739 45.257C15.04 45.1544 15.3805 45.0899 15.7305 45.0899C16.1474 45.0865 16.499 45.1796 16.7215 45.2801C16.799 45.3181 16.8873 45.3667 16.959 45.4213C17.0391 45.4883 17.1495 45.6253 17.1919 45.8136H17.5677V44.7907H17.1489V44.9087C17.1489 44.9483 17.109 44.9968 17.0334 44.955C16.8451 44.8549 16.3156 44.645 15.6635 44.6426C15.295 44.6426 14.8739 44.7133 14.5207 44.8724C14.1918 45.0178 13.9199 45.2557 13.9199 45.6511C13.9199 46.0044 14.1461 46.2124 14.1394 46.205C14.2358 46.2962 14.3902 46.4465 14.7933 46.5337C14.973 46.5733 15.3568 46.6339 15.7418 46.6765C16.1222 46.7143 16.4975 46.754 16.6513 46.7905C16.7725 46.824 16.9743 46.8667 16.9743 47.0928C16.9743 47.3214 16.7602 47.3917 16.7215 47.4049C16.6835 47.4218 16.4285 47.5392 15.9639 47.5392C15.6226 47.5392 15.2132 47.436 15.0629 47.384C14.8918 47.3214 14.7104 47.2406 14.5418 47.0308C14.4997 46.9825 14.4351 46.8407 14.4351 46.7005H14.0135V47.8756H14.4798C14.4798 47.8756 14.4798 47.7503 14.4798 47.7158C14.4798 47.7017 14.5045 47.6264 14.5793 47.6636C14.6766 47.7066 14.962 47.8196 15.2617 47.8817C15.506 47.9318 15.6635 47.9677 15.9666 47.9677C16.4638 47.9677 16.7306 47.8888 16.9136 47.836C17.0901 47.784 17.3039 47.6946 17.4763 47.557C17.5712 47.4848 17.7761 47.2909 17.7761 46.9389C17.7761 46.6022 17.5987 46.3933 17.5333 46.3309C17.4467 46.2446 17.3433 46.1771 17.2332 46.1257ZM31.2773 45.2023C31.2773 45.2023 31.4838 45.2023 31.5299 45.2023C31.6045 45.2023 31.6246 45.2785 31.5923 45.3181L30.8778 46.1556L30.8577 46.1515L30.1619 45.3181C30.111 45.2557 30.1521 45.2023 30.2075 45.2023C30.2572 45.2023 30.4542 45.2023 30.4542 45.2023V44.8303H28.4011V45.2023C28.4011 45.2023 28.6388 45.2023 28.7667 45.2023C28.9259 45.2023 29.0287 45.3037 29.0887 45.3691C29.1369 45.4201 30.1829 46.609 30.2075 46.6418C30.2328 46.6747 30.2328 46.6812 30.2328 46.6956V47.282L30.2257 47.3657C30.21 47.3942 30.1852 47.4234 30.1455 47.4344L30.0419 47.4415H29.6767V47.8147H31.7186V47.4415C31.7186 47.4415 31.4076 47.4415 31.3314 47.4415L31.2309 47.4344C31.1899 47.4234 31.1627 47.3942 31.1511 47.3657L31.143 47.282C31.143 47.2292 31.143 46.7184 31.143 46.6956L31.1579 46.6385C31.1854 46.6074 32.2429 45.3968 32.2906 45.3437C32.3919 45.2263 32.4481 45.2023 32.5845 45.2023C32.71 45.2023 32.9596 45.2023 32.9596 45.2023V44.8303H31.2773V45.2023ZM21.6466 47.1924C21.4109 47.4295 21.072 47.557 20.703 47.557C20.3409 47.557 19.9944 47.4295 19.7592 47.1924C19.5358 46.9687 19.4154 46.6532 19.4154 46.319C19.4154 45.9808 19.5342 45.6631 19.7592 45.4408C19.9944 45.209 20.3409 45.0798 20.703 45.0798C21.0641 45.0798 21.4133 45.211 21.6466 45.4408C21.8747 45.6631 21.991 45.9778 21.991 46.319C21.991 46.6717 21.8824 46.9555 21.6466 47.1924ZM20.703 44.6426C20.0455 44.6426 19.3445 44.8693 18.9465 45.2281C18.6315 45.5178 18.4673 45.9172 18.4673 46.319C18.4673 46.7233 18.6258 47.1186 18.9465 47.4086C19.3757 47.7936 20.0142 48 20.703 48C21.396 48 22.0498 47.7966 22.465 47.4086C22.7734 47.1223 22.9365 46.7076 22.9365 46.319C22.9365 45.9156 22.7826 45.5215 22.465 45.2318C22.0191 44.8254 21.4353 44.6426 20.703 44.6426Z" fill="#0A0A0A"/>
</g>
</g>
</svg>
