<svg width="31" height="31" viewBox="0 0 31 31" fill="none" xmlns="http://www.w3.org/2000/svg">
<g id="vuesax/outline/star">
<g id="star">
<g id="Vector">
<path d="M21.1796 26.3199C20.6378 26.3199 19.9427 26.1461 19.0737 25.635L16.0171 23.8255C15.7002 23.6415 15.0868 23.6415 14.7801 23.8255L11.7133 25.635C9.90382 26.7084 8.84064 26.279 8.36017 25.9315C7.88992 25.5839 7.15387 24.6945 7.63435 22.6499L8.36017 19.5115C8.44195 19.1844 8.27839 18.6221 8.03304 18.3768L5.49777 15.8415C4.23014 14.5739 4.33237 13.4902 4.50616 12.9587C4.67995 12.4271 5.23198 11.4866 6.99031 11.1901L10.2514 10.6483C10.5581 10.5972 10.9977 10.2701 11.1306 9.99403L12.94 6.38537C13.7578 4.73949 14.8312 4.49414 15.3935 4.49414C15.9557 4.49414 17.0291 4.73949 17.847 6.38537L19.6462 9.98381C19.7893 10.2598 20.2289 10.587 20.5356 10.6381L23.7967 11.1799C25.5652 11.4763 26.1173 12.4168 26.2808 12.9484C26.4444 13.48 26.5466 14.5636 25.2892 15.8313L22.7539 18.3768C22.5086 18.6221 22.3552 19.1742 22.4268 19.5115L23.1526 22.6499C23.6229 24.6945 22.8971 25.5839 22.4268 25.9315C22.1712 26.1155 21.7623 26.3199 21.1796 26.3199ZM15.3935 22.149C15.8944 22.149 16.3953 22.2717 16.794 22.5068L19.8507 24.3162C20.74 24.8478 21.3023 24.8478 21.517 24.6945C21.7317 24.5411 21.885 23.9993 21.6601 22.9975L20.9343 19.8591C20.74 19.0106 21.0569 17.9167 21.6703 17.2931L24.2056 14.7579C24.7065 14.257 24.9314 13.7663 24.8292 13.4289C24.7167 13.0916 24.2465 12.8155 23.5513 12.7031L20.2902 12.1613C19.5031 12.0284 18.6444 11.3946 18.2866 10.679L16.4873 7.08052C16.1602 6.42626 15.7513 6.03779 15.3935 6.03779C15.0357 6.03779 14.6268 6.42626 14.3099 7.08052L12.5004 10.679C12.1426 11.3946 11.2839 12.0284 10.4967 12.1613L7.24588 12.7031C6.55073 12.8155 6.08048 13.0916 5.96802 13.4289C5.85557 13.7663 6.0907 14.2672 6.59162 14.7579L9.12688 17.2931C9.74025 17.9065 10.0572 19.0106 9.86293 19.8591L9.13711 22.9975C8.90198 24.0096 9.06555 24.5411 9.28023 24.6945C9.49491 24.8478 10.0469 24.8376 10.9466 24.3162L14.0032 22.5068C14.3917 22.2717 14.8926 22.149 15.3935 22.149Z" fill="url(#paint0_linear_1285_3916)"/>
<path d="M15.3935 22.149C15.8944 22.149 16.3953 22.2717 16.794 22.5068L19.8507 24.3162C20.74 24.8478 21.3023 24.8478 21.517 24.6945C21.7317 24.5411 21.885 23.9993 21.6601 22.9975L20.9343 19.8591C20.74 19.0106 21.0569 17.9167 21.6703 17.2931L24.2056 14.7579C24.7065 14.257 24.9314 13.7663 24.8292 13.4289C24.7167 13.0916 24.2465 12.8155 23.5513 12.7031L20.2902 12.1613C19.5031 12.0284 18.6444 11.3946 18.2866 10.679L16.4873 7.08052C16.1602 6.42626 15.7513 6.03779 15.3935 6.03779C15.0357 6.03779 14.6268 6.42626 14.3099 7.08052L12.5004 10.679C12.1426 11.3946 11.2839 12.0284 10.4967 12.1613L7.24588 12.7031C6.55073 12.8155 6.08048 13.0916 5.96802 13.4289C5.85557 13.7663 6.0907 14.2672 6.59162 14.7579L9.12688 17.2931C9.74025 17.9065 10.0572 19.0106 9.86293 19.8591L9.13711 22.9975C8.90198 24.0096 9.06555 24.5411 9.28023 24.6945C9.49491 24.8478 10.0469 24.8376 10.9466 24.3162L14.0032 22.5068C14.3917 22.2717 14.8926 22.149 15.3935 22.149Z" fill="url(#paint1_linear_1285_3916)"/>
</g>
</g>
</g>
<defs>
<linearGradient id="paint0_linear_1285_3916" x1="1.31716" y1="-0.079645" x2="22.0331" y2="39.7697" gradientUnits="userSpaceOnUse">
<stop stop-color="#E2A4FF"/>
<stop offset="0.730644" stop-color="#6777FF"/>
</linearGradient>
<linearGradient id="paint1_linear_1285_3916" x1="1.31716" y1="-0.079645" x2="22.0331" y2="39.7697" gradientUnits="userSpaceOnUse">
<stop stop-color="#E2A4FF"/>
<stop offset="0.730644" stop-color="#6777FF"/>
</linearGradient>
</defs>
</svg>
