
<svg width="270" height="270" viewBox="0 0 270 270" fill="none" xmlns="http://www.w3.org/2000/svg">
<path d="M166.585 229.076C171.8 231.859 177.693 233.189 183.611 232.946V249.41C168.132 255.262 151.642 258.259 135.002 258.239H135C61.474 258.239 2 200.811 2 130.119C2 59.4278 61.474 2 135 2C208.526 2 268 59.4278 268 130.119V130.122C268.014 143.338 265.902 156.471 261.745 169.055L238.853 147.026C235.843 144.126 232.275 141.828 228.352 140.262C224.43 138.696 220.228 137.891 215.986 137.891C211.745 137.891 207.543 138.696 203.621 140.262C199.698 141.828 196.129 144.126 193.12 147.026L159.37 179.556L160.758 180.996L159.37 179.556C154.62 184.135 151.453 190.034 150.323 196.44C149.192 202.847 150.156 209.433 153.075 215.282C155.994 221.13 160.719 225.947 166.585 229.076Z" fill="url(#paint0_linear_721_12687)" stroke="#FFFEFE" stroke-width="4"/>
<path d="M255.543 196.255L255.518 196.231L221.768 163.702C220.25 162.24 218.177 161.407 216.001 161.407C213.825 161.407 211.752 162.24 210.233 163.701L255.543 196.255ZM255.543 196.255L255.569 196.279C256.365 196.993 256.998 197.851 257.436 198.798C257.874 199.745 258.108 200.764 258.127 201.795C258.146 202.826 257.949 203.852 257.547 204.812C257.144 205.773 256.543 206.651 255.775 207.391C255.006 208.132 254.087 208.719 253.07 209.116C252.052 209.512 250.96 209.707 249.858 209.688C248.757 209.67 247.673 209.437 246.671 209.007C245.67 208.577 244.773 207.959 244.033 207.193L244.009 207.168L243.983 207.143L227.513 191.269L224.126 188.003V192.709V260.241C224.126 262.274 223.288 264.24 221.772 265.702C220.253 267.165 218.179 268 216.001 268C213.822 268 211.748 267.165 210.229 265.702C208.713 264.24 207.876 262.274 207.876 260.241V192.709V188.003L204.488 191.269L188.018 207.143L187.992 207.168L187.968 207.193C187.228 207.959 186.331 208.577 185.33 209.007C184.328 209.437 183.244 209.67 182.143 209.688C181.041 209.707 179.949 209.512 178.932 209.116C177.914 208.719 176.995 208.132 176.226 207.391C175.458 206.651 174.857 205.773 174.454 204.812C174.052 203.852 173.855 202.826 173.874 201.795C173.893 200.764 174.127 199.745 174.565 198.798C175.003 197.851 175.636 196.993 176.432 196.279L176.458 196.255L176.483 196.231L210.233 163.702L255.543 196.255ZM137.493 139.073L140.376 140.491V137.278V65.0617C140.376 63.0282 141.213 61.0623 142.729 59.6011L141.341 58.1611L142.729 59.6011C144.248 58.1374 146.322 57.3027 148.501 57.3027C150.679 57.3027 152.753 58.1374 154.272 59.6011C155.788 61.0623 156.626 63.0282 156.626 65.0617C156.626 73.3811 160.055 81.3442 166.134 87.2036C172.211 93.0606 180.437 96.3386 189.001 96.3386C191.179 96.3386 193.253 97.1733 194.772 98.6369C196.288 100.098 197.126 102.064 197.126 104.098C197.126 106.131 196.288 108.097 194.772 109.558C193.253 111.022 191.179 111.857 189.001 111.857C178.036 111.857 167.929 108.364 159.798 102.478L156.626 100.18V104.098V169.157C156.626 169.157 156.626 169.157 156.626 169.157C156.624 176.5 154.135 183.65 149.523 189.519C144.91 195.389 138.424 199.659 131.043 201.663C123.662 203.667 115.802 203.292 108.664 200.597C101.527 197.901 95.5133 193.039 91.5266 186.762C87.5409 180.488 85.7953 173.139 86.5455 165.831C87.2958 158.523 90.503 151.64 95.6945 146.233C100.887 140.824 107.781 137.188 115.333 135.893C122.885 134.597 130.668 135.716 137.493 139.073Z" fill="#FFFEFE" stroke="#FFFEFE" stroke-width="4"/>
<defs>
<linearGradient id="paint0_linear_721_12687" x1="-37.9286" y1="-54.5354" x2="204.769" y2="426.59" gradientUnits="userSpaceOnUse">
<stop stop-color="#E2A4FF"/>
<stop offset="0.730644" stop-color="#6777FF"/>
</linearGradient>
</defs>
</svg>
