<svg width="72" height="48" viewBox="0 0 72 48" fill="none" xmlns="http://www.w3.org/2000/svg">
<g id="clients/ universal">
<g id="Vector">
<path fill-rule="evenodd" clip-rule="evenodd" d="M45.4095 23.5346C44.1601 27.3279 40.6496 30.2792 36.1994 30.2792C31.4807 30.2792 28.308 27.3676 27.0344 23.617C28.3595 27.111 31.9656 29.6162 36.2065 29.6162C40.48 29.6162 44.1095 27.0715 45.4095 23.5346ZM27.0132 17.7461C28.2681 13.9626 31.2373 11.04 36.1994 11.04C40.8117 11.04 44.201 14.0026 45.4299 17.8289C44.1477 14.2629 40.5019 11.6898 36.2064 11.6898C31.9432 11.6898 28.3213 14.2229 27.0132 17.7461Z" fill="#0A0A0A"/>
<path fill-rule="evenodd" clip-rule="evenodd" d="M36.3947 16.8117C36.4543 16.7254 36.6329 16.7829 36.7597 16.7859C36.9312 16.7893 36.8903 17.0351 37.1253 16.9861C37.3602 16.9375 37.3633 17.2041 37.6986 17.1947C38.0358 17.1844 37.6316 17.3092 37.6316 17.3092C37.6316 17.3092 37.4236 17.2113 37.2883 17.2766C37.2177 17.311 37.315 17.2572 37.1966 17.1618C37.0117 17.0145 37.0361 17.1897 36.7258 16.9325C36.5079 16.7515 36.2979 16.9541 36.3947 16.8117ZM38.0815 23.5264C38.2153 23.5791 38.3818 23.7095 38.4589 23.9076C38.6406 24.3775 38.3705 23.9966 38.3705 24.7051C38.3705 25.3575 38.1817 25.2517 38.1817 25.2517C38.1817 25.2517 38.1408 26.0226 37.7331 26.4961C37.4728 26.7509 37.6749 26.962 37.6749 26.962C37.6749 26.962 37.5866 27.0095 37.4592 27.5688C37.4183 27.75 37.6555 28.0291 37.8623 27.9595C38.0161 27.9075 37.4864 27.8576 38.0606 27.6209C38.2823 27.5295 38.101 27.3578 38.101 27.3578C38.101 27.3578 38.4731 27.3306 38.683 26.7822C39.0529 26.8346 38.9154 26.6136 39.6775 26.4534C39.8791 26.4108 39.9216 26.3519 39.8968 26.1667C39.8714 25.9824 40.1452 26.1938 40.9002 25.4431C41.4955 24.8503 41.281 24.717 41.6921 24.5016C42.1269 24.2758 42.1668 24.5217 42.3123 24.3368C42.6456 23.9162 42.5276 23.9422 42.666 23.6743L42.7643 23.5256L38.0815 23.5264ZM33.8948 17.2918C33.7712 16.9941 33.7794 16.5118 34.0438 16.0658C34.2102 15.7872 34.6515 15.6638 35.0369 15.8105C35.4694 15.4779 35.5724 15.8357 35.9553 15.674C36.4581 15.4613 36.1764 16.2372 36.6638 16.4337C36.865 15.9104 36.2047 15.5175 36.6188 15.2705C36.9143 15.095 37.137 14.986 37.2579 14.7501C37.4306 14.4147 37.4983 14.1697 37.6307 14.1251C37.9377 14.0234 37.8716 13.7389 37.8716 13.7389C37.8716 13.7389 38.1976 13.8325 38.4519 13.6C38.258 13.4984 37.975 13.4103 38.0494 13.2076C38.1365 12.968 38.7942 13.4549 38.9881 13.0621C38.5978 12.8957 38.1986 12.535 37.9599 12.4519C37.7957 12.6258 37.6938 12.5558 37.4826 12.3925C37.1254 12.1171 37.0952 12.3796 36.8719 12.1894C36.6934 12.5391 36.9617 12.5113 37.0449 12.5989C37.2743 12.8438 36.8123 12.3787 36.8568 13.0038C36.8685 13.1664 36.6227 13.1959 36.4398 12.8438C36.3445 12.6606 35.5854 12.6996 35.4707 12.5242C35.5753 12.3203 36.4687 11.5937 37.841 11.7679C35.8479 11.0047 33.1549 11.8391 33.128 12.1291C32.8596 12.2933 32.952 12.4804 32.8182 12.5242C32.5866 12.5998 32.333 13.2912 32.333 13.2912C32.333 13.2912 32.4775 13.3852 32.027 13.8771C31.6558 14.2821 31.5457 14.8962 31.5457 14.8962C31.5457 14.8962 31.7912 15.3337 31.7447 15.8381C31.7097 16.2225 31.6931 15.9375 31.8648 16.2163C31.9645 16.3794 32.0736 16.949 32.14 16.7269C32.267 16.3025 31.9091 15.9106 31.9682 15.4889C31.9814 15.5414 32.1058 15.322 32.101 15.5206C32.0872 16.0413 32.7586 17.0447 32.7586 17.0447C32.7586 17.0447 32.5081 17.2923 32.7694 17.2923L33.8948 17.2918Z" fill="#0A0A0A"/>
<path d="M19.6125 18.6869H18.0989L18.3248 18.9495V20.8872C18.3248 21.3234 18.0291 21.507 17.5874 21.507C17.146 21.507 16.8497 21.3234 16.8497 20.8872V18.9495L17.076 18.6869H15.5627L15.7885 18.9495V20.9187C15.7885 21.8857 16.3437 22.2585 17.5874 22.2585C18.8314 22.2585 19.3864 21.8857 19.3864 20.9187V18.9495L19.6125 18.6869Z" fill="#0A0A0A"/>
<path d="M24.8653 18.6869H23.5883L23.8155 18.9495V20.7142L21.9843 18.6869H20.8365L21.0633 18.9495V21.9274L20.8365 22.19H22.1126L21.8868 21.9274V20.132L23.8314 22.19H24.639V18.9495L24.8653 18.6869Z" fill="#0A0A0A"/>
<path d="M27.8063 22.19L27.58 21.9274V18.9495L27.8063 18.6869H26.2821L26.5083 18.9495V21.9274L26.2821 22.19H27.8063Z" fill="#0A0A0A"/>
<path d="M32.8321 18.6869H31.5501L31.7764 18.9495L30.872 20.8773L29.9992 18.9495L30.2258 18.6869H28.7173L30.3923 22.19H31.1409L32.8321 18.6869Z" fill="#0A0A0A"/>
<path d="M37.1118 22.19V21.2396L36.8424 21.4603H35.006V20.7873H36.169L36.4334 21.0085V19.8683L36.169 20.0893H35.006V19.4167H36.8424L37.1118 19.6375V18.6869H33.73L33.9562 18.9495V21.9274L33.73 22.19H37.1118Z" fill="#0A0A0A"/>
<path fill-rule="evenodd" clip-rule="evenodd" d="M42.26 22.19L41.2863 20.8086C41.7648 20.6191 42.0982 20.257 42.0982 19.7479C42.0982 19.1644 41.7325 18.6869 40.7089 18.6869H38.4691L38.6958 18.9495V21.9274L38.4691 22.19H39.9717L39.7459 21.9274V20.9348H40.1975L40.886 21.9274L40.6606 22.19H42.26ZM41.0223 19.8212C41.0223 20.0734 40.7742 20.2784 40.4292 20.2784H39.746V19.4167H40.5586C40.7951 19.4167 41.0223 19.533 41.0223 19.8212Z" fill="#0A0A0A"/>
<path d="M46.8099 21.1661C46.8099 20.6092 46.3518 20.2994 45.6893 20.0893C45.2587 19.9584 44.6504 19.864 44.6504 19.5852C44.6504 19.4485 44.8168 19.3536 45.1079 19.3536C45.4964 19.3536 46.1309 19.5115 46.626 19.7424V18.5719L46.3411 18.8393C46.0395 18.7184 45.5169 18.5925 45.1565 18.5925C43.9349 18.5925 43.5408 19.1177 43.5408 19.596C43.5408 20.2469 43.9824 20.5308 44.6775 20.7671C45.1935 20.9401 45.6731 20.956 45.6731 21.2442C45.6731 21.4919 45.3775 21.5234 45.2267 21.5234C44.8443 21.5234 44.1656 21.3916 43.5622 21.0086V22.3055L43.8479 22.0008C44.1284 22.1063 44.7583 22.2844 45.275 22.2844C46.3352 22.2843 46.8099 21.8275 46.8099 21.1661Z" fill="#0A0A0A"/>
<path fill-rule="evenodd" clip-rule="evenodd" d="M52.1816 22.19L50.4153 18.6869H49.2035L49.3322 18.9495L47.7328 22.19H49.0526L48.8263 21.9274L49.0037 21.5601H50.7162L50.8882 21.9274L50.6619 22.19H52.1816ZM50.4527 20.9298H49.2618L49.8549 19.6745L50.4527 20.9298Z" fill="#0A0A0A"/>
<path d="M56.4374 22.19V21.2396L56.1675 21.4603H54.4392V18.9495L54.6649 18.6869H53.1623L53.3886 18.9495V21.9274L53.1623 22.19H56.4374Z" fill="#0A0A0A"/>
<path d="M55.4782 19.1726C55.4782 19.4179 55.6814 19.6156 55.9315 19.6156C56.1836 19.6156 56.3867 19.4179 56.3867 19.1726C56.3867 18.9276 56.1836 18.7293 55.9315 18.7293C55.6815 18.7293 55.4782 18.9276 55.4782 19.1726ZM55.4306 19.1726C55.4306 18.9025 55.6551 18.6835 55.9315 18.6835C56.2094 18.6835 56.4337 18.9025 56.4337 19.1726C56.4337 19.4428 56.2095 19.6623 55.9315 19.6623C55.6551 19.6623 55.4306 19.4428 55.4306 19.1726Z" fill="#0A0A0A"/>
<path fill-rule="evenodd" clip-rule="evenodd" d="M56.121 18.9814C56.071 18.9405 56.0123 18.9217 55.9476 18.9217C55.8001 18.9217 55.6902 19.0332 55.6902 19.1739C55.6902 19.316 55.798 19.4292 55.9457 19.4292C56.0133 19.4292 56.0776 19.4053 56.1277 19.3618V19.2971C56.0819 19.3504 56.0151 19.3846 55.9439 19.3846C55.8259 19.3846 55.7391 19.2843 55.7391 19.1739C55.7391 19.0632 55.8269 18.9655 55.9449 18.9655C56.0159 18.9655 56.0736 18.9934 56.121 19.0443L56.121 18.9814Z" fill="#0A0A0A"/>
<path d="M2.79554 34.9927L2.63945 35.1696V36.5015C2.63945 36.6668 2.61461 36.8068 2.565 36.9214C2.51539 37.0357 2.44094 37.1287 2.3418 37.1997C2.24251 37.271 2.11536 37.3235 1.96056 37.3577C1.80562 37.3917 1.61813 37.4087 1.39781 37.4087C1.17871 37.4087 0.992088 37.3917 0.83772 37.3577C0.683496 37.3235 0.556128 37.271 0.455616 37.1997C0.355104 37.1287 0.280152 37.0355 0.230544 36.9204C0.180936 36.8053 0.156096 36.666 0.156096 36.5015V35.1696L0 34.9927H1.04558L0.889488 35.1696V36.4808C0.889488 36.6218 0.934488 36.727 1.02463 36.7964C1.11478 36.8658 1.23919 36.9005 1.39774 36.9005C1.55628 36.9005 1.68098 36.8663 1.7717 36.7974C1.86242 36.7285 1.90786 36.6231 1.90786 36.4809V35.1696L1.75183 34.9927L2.79554 34.9927Z" fill="#0A0A0A"/>
<path d="M6.80386 34.9927L6.64769 35.1696V37.362H6.08861L4.74703 35.9692V37.185L4.9032 37.3619H4.02271L4.17888 37.185V35.1696L4.02271 34.9927H4.81428L6.07774 36.3645V35.1696L5.92157 34.9927H6.80386Z" fill="#0A0A0A"/>
<path d="M9.21096 37.362H8.1599L8.316 37.1851V35.1696L8.1599 34.9927H9.21096L9.05494 35.1696V37.1851L9.21096 37.362Z" fill="#0A0A0A"/>
<path d="M13.074 34.9927L11.9069 37.362H11.3895L10.2331 34.9927H11.2751L11.119 35.1696L11.7217 36.4738L12.3462 35.1696L12.1901 34.9927H13.074Z" fill="#0A0A0A"/>
<path d="M16.4125 37.362H14.0779L14.234 37.1851V35.1696L14.0779 34.9927H16.4125V35.6363L16.2255 35.487H14.9584V35.9416H15.7608L15.9441 35.7922V36.5625L15.7608 36.4132H14.9584V36.8678H16.2255L16.4125 36.7185V37.362Z" fill="#0A0A0A"/>
<path d="M20.3481 37.362H19.2443L19.4005 37.1851L18.9248 36.5139H18.6126V37.1851L18.7687 37.362H17.7322L17.8882 37.1851V35.1696L17.7322 34.9927H19.2788C19.6129 34.9927 19.856 35.0587 20.0086 35.1904C20.161 35.3223 20.2373 35.4956 20.2373 35.7106C20.2373 35.876 20.187 36.0201 20.0866 36.1426C19.9862 36.2652 19.8493 36.3601 19.6764 36.4272L20.3481 37.362ZM19.4931 35.7592C19.4931 35.6969 19.4783 35.6454 19.4486 35.6049C19.4189 35.5645 19.3799 35.5347 19.3316 35.5156C19.2833 35.4965 19.2306 35.487 19.1736 35.487H18.6126V36.0699H19.0847C19.202 36.0699 19.2995 36.0397 19.377 35.9795C19.4543 35.9193 19.4931 35.8459 19.4931 35.7592Z" fill="#0A0A0A"/>
<path d="M23.8698 36.6698C23.8698 36.7844 23.849 36.8873 23.8072 36.9787C23.7654 37.07 23.7007 37.1492 23.6131 37.2164C23.5252 37.2833 23.4151 37.3351 23.2826 37.3714C23.15 37.408 22.9931 37.4261 22.8115 37.4261C22.7014 37.4261 22.583 37.4157 22.4566 37.395C22.3301 37.3741 22.208 37.3476 22.09 37.3151C21.972 37.2829 21.8839 37.2556 21.8258 37.2337L21.6279 37.44V36.5625C21.8167 36.6804 22.0173 36.7679 22.2297 36.8252C22.4421 36.8825 22.6245 36.9111 22.7771 36.9111C22.8556 36.9111 22.9268 36.8981 22.9902 36.8722C23.0539 36.8462 23.0856 36.7961 23.0856 36.7219C23.0856 36.663 23.0578 36.6179 23.0021 36.5867C22.9465 36.5555 22.8438 36.5207 22.6944 36.4819C22.5449 36.4431 22.446 36.4157 22.3975 36.3994C22.1337 36.3117 21.937 36.2088 21.8076 36.0916C21.678 35.9742 21.6133 35.8126 21.6133 35.6067C21.6133 35.4899 21.6493 35.3804 21.7213 35.2781C21.7933 35.1758 21.9138 35.092 22.0826 35.0265C22.2515 34.9613 22.4671 34.9285 22.7298 34.9285C22.7902 34.9285 22.855 34.9329 22.924 34.9416C22.993 34.9502 23.0692 34.9632 23.1527 34.9805C23.2361 34.9979 23.31 35.0162 23.3741 35.0353C23.4383 35.0546 23.4957 35.0742 23.5466 35.0952L23.7445 34.9149V35.7075C23.6271 35.6543 23.5039 35.6078 23.3751 35.5679C23.2461 35.5278 23.1224 35.4973 23.0038 35.4759C22.8851 35.4544 22.7824 35.4439 22.6951 35.4439C22.5971 35.4439 22.5199 35.4583 22.4638 35.4872C22.4075 35.5161 22.3794 35.5537 22.3794 35.5998C22.3794 35.6439 22.4006 35.6819 22.4429 35.7144C22.4852 35.7467 22.5394 35.7749 22.6054 35.7985C22.6714 35.8223 22.7572 35.8483 22.8632 35.8765C22.969 35.9049 23.0468 35.9266 23.0964 35.9418C23.3444 36.019 23.5354 36.1153 23.6691 36.2304C23.8028 36.3455 23.8698 36.4919 23.8698 36.6698Z" fill="#0A0A0A"/>
<path d="M27.9634 37.362H26.9142L27.0703 37.1851L26.9523 36.9354H25.7686L25.647 37.1851L25.8031 37.362H24.8918L25.9956 35.1696L25.9065 34.9927H26.7435L27.9634 37.362ZM26.769 36.5085L26.3569 35.6603L25.9485 36.5085H26.769Z" fill="#0A0A0A"/>
<path d="M29.0236 37.362L29.1797 37.1851V35.1696L29.0236 34.9927H30.0602L29.9041 35.1696V36.8678H31.0967L31.2837 36.7185V37.362H29.0236Z" fill="#0A0A0A"/>
<path d="M37.4995 37.362H36.4846L36.6407 37.1851V36.0472L35.9836 37.362H35.6369L34.8944 36.0265V37.1851L35.0505 37.362H34.1919L34.348 37.1851V35.1696L34.1919 34.9927H35.0652L35.871 36.4429L36.6081 34.9927H37.4995L37.3434 35.1696V37.1851L37.4995 37.362Z" fill="#0A0A0A"/>
<path d="M41.5221 34.9927L41.3661 35.1696V36.5015C41.3661 36.6668 41.3412 36.8068 41.2916 36.9214C41.242 37.0357 41.1675 37.1287 41.0684 37.1997C40.9691 37.271 40.8419 37.3235 40.6871 37.3577C40.5322 37.3917 40.3447 37.4087 40.1244 37.4087C39.9053 37.4087 39.7187 37.3917 39.5644 37.3577C39.4101 37.3235 39.2827 37.271 39.1822 37.1997C39.0817 37.1287 39.0068 37.0355 38.9572 36.9204C38.9076 36.8053 38.8827 36.666 38.8827 36.5015V35.1696L38.7266 34.9927H39.7722L39.6161 35.1696V36.4808C39.6161 36.6218 39.6611 36.727 39.7513 36.7964C39.8414 36.8658 39.9658 36.9005 40.1244 36.9005C40.2829 36.9005 40.4076 36.8663 40.4983 36.7974C40.5891 36.7285 40.6345 36.6231 40.6345 36.4809V35.1696L40.4784 34.9927L41.5221 34.9927Z" fill="#0A0A0A"/>
<path d="M44.9678 36.6698C44.9678 36.7844 44.9469 36.8873 44.9051 36.9787C44.8634 37.07 44.7986 37.1492 44.7109 37.2164C44.6231 37.2833 44.5131 37.3351 44.3804 37.3714C44.248 37.408 44.0909 37.4261 43.9094 37.4261C43.7993 37.4261 43.681 37.4157 43.5545 37.395C43.428 37.3741 43.3058 37.3476 43.1878 37.3151C43.0698 37.2829 42.9817 37.2556 42.9237 37.2337L42.7257 37.44V36.5625C42.9145 36.6804 43.1151 36.7679 43.3275 36.8252C43.5399 36.8825 43.7224 36.9111 43.8749 36.9111C43.9536 36.9111 44.0246 36.8981 44.0883 36.8722C44.1518 36.8462 44.1834 36.7961 44.1834 36.7219C44.1834 36.663 44.1556 36.6179 44.1 36.5867C44.0443 36.5555 43.9418 36.5207 43.7923 36.4819C43.6429 36.4431 43.5439 36.4157 43.4955 36.3994C43.2318 36.3117 43.035 36.2088 42.9056 36.0916C42.7761 35.9742 42.7113 35.8126 42.7113 35.6067C42.7113 35.4899 42.7474 35.3804 42.8194 35.2781C42.8914 35.1758 43.0119 35.092 43.1806 35.0265C43.3495 34.9613 43.5651 34.9285 43.8278 34.9285C43.8883 34.9285 43.953 34.9329 44.022 34.9416C44.091 34.9502 44.1673 34.9632 44.2507 34.9805C44.3343 34.9979 44.408 35.0162 44.4722 35.0353C44.5364 35.0546 44.5938 35.0742 44.6448 35.0952L44.8426 34.9149V35.7075C44.7252 35.6543 44.6021 35.6078 44.4731 35.5679C44.3443 35.5278 44.2205 35.4973 44.1019 35.4759C43.9834 35.4544 43.8805 35.4439 43.7934 35.4439C43.6954 35.4439 43.6182 35.4583 43.5619 35.4872C43.5056 35.5161 43.4774 35.5537 43.4774 35.5998C43.4774 35.6439 43.4986 35.6819 43.5411 35.7144C43.5834 35.7467 43.6375 35.7749 43.7035 35.7985C43.7694 35.8223 43.8553 35.8483 43.9613 35.8765C44.0672 35.9049 44.1449 35.9266 44.1945 35.9418C44.4426 36.019 44.6335 36.1153 44.7672 36.2304C44.9009 36.3452 44.9678 36.4919 44.9678 36.6698Z" fill="#0A0A0A"/>
<path d="M47.3386 37.362H46.2874L46.4435 37.1851V35.1696L46.2874 34.9927H47.3386L47.1823 35.1696V37.1851L47.3386 37.362Z" fill="#0A0A0A"/>
<path d="M50.9746 37.192C50.9286 37.2173 50.8701 37.2428 50.7987 37.2683C50.7272 37.2935 50.6485 37.3165 50.5627 37.3367C50.4767 37.3569 50.3839 37.374 50.284 37.388C50.1841 37.4017 50.0895 37.4087 50 37.4087C49.8064 37.4087 49.6238 37.3851 49.4526 37.3377C49.2813 37.2903 49.1288 37.2164 48.9951 37.1157C48.8615 37.0151 48.7565 36.8856 48.6802 36.7271C48.6039 36.5687 48.5659 36.3847 48.5659 36.1756C48.5659 36.0022 48.5978 35.8402 48.6621 35.69C48.7262 35.5397 48.8212 35.4088 48.9471 35.297C49.0729 35.1855 49.2269 35.0991 49.409 35.0377C49.5912 34.9765 49.7984 34.9457 50.0308 34.9457C50.1227 34.9457 50.2165 34.952 50.3121 34.964C50.4077 34.976 50.4958 34.9915 50.5763 35.01C50.6567 35.0286 50.7316 35.05 50.8005 35.074L50.9711 34.9181V35.7073C50.8792 35.6529 50.7864 35.6076 50.6925 35.571C50.5987 35.5347 50.4996 35.5067 50.3957 35.487C50.2916 35.4672 50.1833 35.4576 50.0707 35.4576C49.825 35.4576 49.6423 35.5247 49.5225 35.6596C49.4027 35.7942 49.3428 35.9664 49.3428 36.1756C49.3428 36.3178 49.3736 36.4435 49.4353 36.5528C49.497 36.6621 49.5854 36.7469 49.7004 36.8068C49.8154 36.867 49.9467 36.8971 50.0944 36.8971C50.2311 36.8971 50.3561 36.8832 50.4692 36.8555C50.5823 36.8278 50.6761 36.7958 50.7506 36.7592C50.825 36.7228 50.8997 36.6821 50.9747 36.6368L50.9746 37.192Z" fill="#0A0A0A"/>
<path d="M55.8163 36.3681L55.6565 36.1859H56.5405V37.1347C56.4884 37.1659 56.4201 37.1981 56.3354 37.2311C56.2506 37.264 56.1556 37.2941 56.0503 37.3211C55.945 37.3483 55.8386 37.3698 55.7308 37.3854C55.6232 37.4011 55.5178 37.4087 55.415 37.4087C55.1548 37.4087 54.9127 37.3654 54.6889 37.2787C54.465 37.192 54.2858 37.056 54.1516 36.8711C54.0171 36.6861 53.95 36.4543 53.95 36.1755C53.95 35.897 54.0207 35.665 54.1624 35.4799C54.304 35.295 54.487 35.1597 54.7115 35.0739C54.936 34.9885 55.1704 34.9456 55.415 34.9456C55.5892 34.9456 55.7333 34.9587 55.8471 34.9847C55.9608 35.0109 56.089 35.0475 56.2319 35.0949L56.4299 34.918V35.7315C56.2712 35.6458 56.1133 35.5788 55.956 35.5303C55.7987 35.4816 55.6305 35.4576 55.4512 35.4576C55.3375 35.4576 55.2358 35.4744 55.1463 35.5086C55.0568 35.5428 54.9809 35.5917 54.9186 35.6553C54.8562 35.7189 54.8088 35.7942 54.776 35.8816C54.7435 35.9691 54.727 36.067 54.727 36.1756C54.727 36.3942 54.7915 36.569 54.9203 36.7002C55.0493 36.8317 55.2263 36.8972 55.4513 36.8972C55.5432 36.8972 55.6649 36.8839 55.8163 36.8572V36.3681Z" fill="#0A0A0A"/>
<path d="M60.3654 37.362H59.2617L59.4179 37.1851L58.9423 36.5139H58.63V37.1851L58.7862 37.362H57.7497L57.9057 37.1851V35.1696L57.7497 34.9927H59.2963C59.6303 34.9927 59.8735 35.0587 60.0261 35.1904C60.1785 35.3223 60.2548 35.4956 60.2548 35.7106C60.2548 35.876 60.2046 36.0201 60.1041 36.1426C60.0036 36.2652 59.8668 36.3601 59.6939 36.4272L60.3654 37.362ZM59.5104 35.7592C59.5104 35.6969 59.4956 35.6454 59.466 35.6049C59.4363 35.5645 59.3973 35.5347 59.349 35.5156C59.3005 35.4965 59.2479 35.487 59.1909 35.487H58.63V36.0699H59.1021C59.2194 36.0699 59.3168 36.0397 59.3944 35.9795C59.4716 35.9193 59.5104 35.8459 59.5104 35.7592Z" fill="#0A0A0A"/>
<path d="M64.3864 36.1755C64.3864 36.4601 64.3186 36.6958 64.1831 36.8831C64.0475 37.0705 63.8718 37.2072 63.6557 37.2934C63.4398 37.3796 63.2071 37.4227 62.9579 37.4227C62.7097 37.4227 62.4769 37.3793 62.2598 37.2927C62.0425 37.2057 61.8656 37.0685 61.7288 36.8807C61.5922 36.6927 61.5237 36.4576 61.5237 36.1756C61.5237 35.9594 61.564 35.7716 61.6444 35.612C61.725 35.4523 61.8338 35.3225 61.9712 35.2224C62.1085 35.1225 62.2613 35.0489 62.4295 35.0021C62.5977 34.9553 62.7738 34.932 62.9579 34.932C63.1442 34.932 63.3215 34.9556 63.4897 35.0031C63.6579 35.0504 63.8095 35.1236 63.9444 35.2224C64.0794 35.3213 64.1867 35.4509 64.2667 35.611C64.3464 35.7711 64.3864 35.9593 64.3864 36.1755ZM63.6095 36.1755C63.6095 35.9453 63.557 35.7659 63.4524 35.6368C63.3477 35.508 63.1828 35.4435 62.9578 35.4435C62.8089 35.4435 62.6854 35.4734 62.5873 35.5329C62.4895 35.5923 62.4177 35.6769 62.3722 35.7862C62.3269 35.8955 62.3042 36.0252 62.3042 36.1755C62.3042 36.2843 62.3166 36.3842 62.3414 36.4754C62.3663 36.5669 62.4057 36.645 62.4594 36.7097C62.5134 36.7745 62.5817 36.8241 62.6647 36.8591C62.7475 36.8937 62.8453 36.911 62.9579 36.911C63.0716 36.911 63.1698 36.8937 63.2529 36.8591C63.3357 36.8241 63.4035 36.7745 63.4561 36.7097C63.5088 36.645 63.5476 36.5684 63.5723 36.4798C63.597 36.3915 63.6095 36.2901 63.6095 36.1755Z" fill="#0A0A0A"/>
<path d="M68.2675 34.9927L68.1114 35.1696V36.5015C68.1114 36.6668 68.0867 36.8068 68.037 36.9214C67.9874 37.0357 67.9129 37.1287 67.8138 37.1997C67.7145 37.271 67.5873 37.3235 67.4325 37.3577C67.2775 37.3917 67.09 37.4087 66.8698 37.4087C66.6507 37.4087 66.4641 37.3917 66.3098 37.3577C66.1555 37.3235 66.0281 37.271 65.9276 37.1997C65.8271 37.1287 65.7521 37.0355 65.7025 36.9204C65.6528 36.8053 65.6282 36.666 65.6282 36.5015V35.1696L65.4719 34.9927H66.5176L66.3614 35.1696V36.4808C66.3614 36.6218 66.4065 36.727 66.4967 36.7964C66.5868 36.8658 66.7112 36.9005 66.8698 36.9005C67.0283 36.9005 67.153 36.8663 67.2438 36.7974C67.3345 36.7285 67.3799 36.6231 67.3799 36.4809V35.1696L67.2238 34.9927L68.2675 34.9927Z" fill="#0A0A0A"/>
<path d="M72 35.7783C72 36.1182 71.8895 36.3525 71.6686 36.4808C71.4478 36.6091 71.1606 36.6734 70.8073 36.6734H70.3752V37.185L70.5313 37.3619H69.4948L69.6509 37.185V35.1696L69.4948 34.9927H70.8291C71.0238 34.9927 71.2086 35.0146 71.3827 35.0586C71.5571 35.1024 71.7034 35.1828 71.822 35.2997C71.9407 35.4164 72 35.576 72 35.7783ZM71.2448 35.8199C71.2448 35.6962 71.2058 35.6097 71.1276 35.5606C71.0497 35.5115 70.9373 35.4869 70.7909 35.4869H70.3753V36.2032H70.7256C70.9035 36.2032 71.0345 36.1755 71.1186 36.1201C71.2027 36.0645 71.2448 35.9646 71.2448 35.8199Z" fill="#0A0A0A"/>
</g>
</g>
</svg>
