<svg width="120" height="80" viewBox="0 0 120 80" fill="none" xmlns="http://www.w3.org/2000/svg">
<g id="clients/ warner">
<g id="Vector">
<path fill-rule="evenodd" clip-rule="evenodd" d="M27.6044 61.6004C16.1913 61.6004 10.2604 59.1206 6.70606 53.2768C4.70806 49.9128 4 43.8755 4 40.0004C4 36.1252 4.70806 30.0949 6.70606 26.724C10.2604 20.8802 16.1913 18.4004 27.6044 18.4004C39.0245 18.4004 44.9554 20.8802 48.5028 26.724C50.5008 30.0949 51.2088 36.1252 51.2088 40.0004C51.2088 43.8755 50.5008 49.9059 48.5028 53.2768C44.9554 59.1206 39.0245 61.6004 27.6044 61.6004ZM37.2789 46.3001L31.6004 32.7612C30.7031 30.7304 28.8312 30.1571 27.5413 30.1571C24.7651 30.1571 22.3816 33.0168 23.6084 36.0631L29.2799 49.6019C30.1843 51.6397 32.0561 52.2061 33.346 52.2061C36.1152 52.2061 38.5058 49.3463 37.2789 46.3001ZM25.8658 46.3001L20.1873 32.7612C19.2829 30.7304 17.4181 30.1571 16.1212 30.1571C13.352 30.1571 10.9614 33.0168 12.1883 36.0631L17.8668 49.6019C18.7712 51.6397 20.643 52.2061 21.9259 52.2061C24.7021 52.2061 27.0856 49.3463 25.8658 46.3001ZM40.4687 41.9829C43.2449 41.9829 45.6355 39.1231 44.4086 36.07L43.0135 32.7682C42.1162 30.7304 40.2444 30.1571 38.9544 30.1571C36.1783 30.1571 33.7947 33.0168 35.0215 36.07L36.4096 39.3787C37.307 41.4095 39.1788 41.9829 40.4687 41.9829Z" fill="#0A0A0A"/>
<path d="M57.5043 32.2846L54.6019 21.9302H56.9364L58.5839 28.4026C58.5885 28.4348 58.5956 28.467 58.6049 28.4993C58.6096 28.5361 58.6166 28.5706 58.6259 28.6029C58.6353 28.6397 58.6446 28.6743 58.654 28.7065C58.6633 28.7387 58.6727 28.771 58.682 28.8032C58.682 28.8078 58.682 28.8124 58.682 28.817C58.6867 28.817 58.689 28.8193 58.689 28.8239C58.689 28.8239 58.689 28.8262 58.689 28.8308C58.6937 28.8262 58.696 28.8216 58.696 28.817C58.696 28.817 58.696 28.8147 58.696 28.8101C58.696 28.8101 58.696 28.8078 58.696 28.8032C58.7101 28.771 58.7217 28.7364 58.7311 28.6996C58.7404 28.6674 58.7475 28.6328 58.7521 28.596C58.7615 28.5637 58.7708 28.5315 58.7802 28.4993C58.7848 28.4624 58.7919 28.4279 58.8012 28.3957L60.4907 21.9233H62.7061L64.4026 28.3818C64.4073 28.4141 64.4143 28.4463 64.4236 28.4785C64.4283 28.5154 64.4353 28.5499 64.4447 28.5822C64.454 28.619 64.4634 28.6535 64.4727 28.6858C64.4821 28.718 64.4914 28.7525 64.5008 28.7894C64.5008 28.8032 64.5148 28.817 64.5148 28.8308V28.8101C64.5241 28.7779 64.5335 28.7456 64.5428 28.7134C64.5522 28.6812 64.5592 28.6489 64.5638 28.6167C64.5732 28.5845 64.5825 28.5522 64.5919 28.52C64.5966 28.4832 64.6036 28.4486 64.6129 28.4164L66.2604 21.9302H68.5949L65.6925 32.2846H63.4001L61.5984 25.4047L59.7967 32.2846H57.5043Z" fill="#0A0A0A"/>
<path fill-rule="evenodd" clip-rule="evenodd" d="M67.319 32.2846L71.5674 21.9302H73.5934L73.6284 22.02L77.8418 32.2846H75.4722L74.4487 29.6528H70.7051L69.6815 32.2846H67.319ZM71.4762 27.6704H73.6915L72.7101 25.1284L72.5769 24.7485L72.3385 25.4461L71.4762 27.6704Z" fill="#0A0A0A"/>
<path fill-rule="evenodd" clip-rule="evenodd" d="M84.5298 27.9605L87.0325 32.2846H84.5018L82.1392 28.2022H80.7231V32.2846H78.5148V21.9302H83.0225C85.357 21.9302 86.8012 23.0768 86.8012 24.9211C86.8012 26.351 86.0371 27.3733 84.5298 27.9605ZM83.0295 23.885H80.7231V26.2474H83.0225C84.0531 26.2474 84.5859 25.8537 84.5859 25.0662C84.5859 24.2787 84.0601 23.885 83.0295 23.885Z" fill="#0A0A0A"/>
<path d="M90.3836 32.2846H88.2243V21.9302H90.4046L94.7091 28.3957C94.7231 28.4141 94.7371 28.4348 94.7511 28.4578C94.7651 28.4762 94.7792 28.497 94.7932 28.52C94.8025 28.5384 94.8142 28.5591 94.8282 28.5822C94.8376 28.6006 94.8493 28.6213 94.8633 28.6443L94.8913 28.6858V21.9302H97.0436V32.2915H94.8633L94.8212 32.2225L90.5588 25.7777C90.5448 25.7593 90.5308 25.7408 90.5168 25.7224C90.5028 25.6994 90.4911 25.6787 90.4817 25.6603C90.4677 25.6372 90.4537 25.6165 90.4397 25.5981C90.4303 25.5751 90.4186 25.5543 90.4046 25.5359L90.3836 25.4876V32.2846Z" fill="#0A0A0A"/>
<path d="M100.955 27.9259V30.3091H106.129V32.2846H98.7401V21.9302H106.08V23.9126H100.955V25.9435H105.674V27.9259H100.955Z" fill="#0A0A0A"/>
<path fill-rule="evenodd" clip-rule="evenodd" d="M116 32.2846H113.469L111.1 28.2022H109.691V32.2846H107.475V21.9302H111.983C114.31 21.9302 115.762 23.0768 115.762 24.9211C115.762 26.351 115.005 27.3733 113.497 27.9605L116 32.2846ZM111.983 23.8781H109.691V26.2474H111.983C113.021 26.2474 113.546 25.8537 113.546 25.0662C113.546 24.2787 113.021 23.8781 111.983 23.8781Z" fill="#0A0A0A"/>
<path d="M65.0966 34.723H67.3681V45.0775H65.2158V39.6895L64.9985 40.3596L62.9514 45.0775H60.9254L58.8853 40.3734L58.668 39.6895V45.0775H56.5088V34.723H58.7802L61.9419 42.4802L65.0966 34.723Z" fill="#0A0A0A"/>
<path d="M71.1677 34.723V40.9329C71.1677 42.3973 71.9389 43.24 73.2849 43.24C74.638 43.24 75.4091 42.3973 75.4091 40.9329V34.723H77.6244V41.1263C77.6244 43.6476 75.9209 45.2778 73.2849 45.2778C70.656 45.2778 68.9524 43.6476 68.9524 41.1263V34.723H71.1677Z" fill="#0A0A0A"/>
<path d="M84.8242 42.1141C84.8242 41.3543 84.1723 40.9398 82.4126 40.5875C80.3095 40.1938 79.1037 39.0402 79.1037 37.4239C79.1037 35.6901 80.5969 34.5227 82.8333 34.5227C84.8453 34.5227 86.1913 35.4207 86.8503 37.2028L86.8923 37.3133L85.1117 38.3218L85.0556 38.163C84.67 37.037 83.9059 36.4706 82.7842 36.4706C82.0621 36.4706 81.2138 36.6917 81.2138 37.3824C81.2138 38.0663 81.8798 38.4669 83.5694 38.8123C85.9599 39.3027 87.0255 40.3043 87.0255 42.045C87.0255 43.6545 85.6725 45.2778 83.0716 45.2778C80.7091 45.2778 79.0896 44.062 78.641 41.9414L78.6129 41.8378L80.5829 40.85L80.6179 41.0365C80.9054 42.5976 81.6835 43.3298 83.0576 43.3298C84.1232 43.3298 84.8172 42.8532 84.8242 42.1141Z" fill="#0A0A0A"/>
<path d="M88.2454 34.723H90.4607V45.0775H88.2454V34.723Z" fill="#0A0A0A"/>
<path d="M96.8262 45.2847C93.6645 45.2847 91.4562 43.0674 91.4562 39.9037C91.4562 36.7815 93.7416 34.5227 96.9034 34.5227C99.0135 34.5227 100.738 35.5312 101.516 37.2374L101.558 37.341L99.7636 38.6189L99.6935 38.4669C99.0556 37.1614 98.1442 36.5604 96.8403 36.5604C95.0175 36.5604 93.6995 37.9627 93.6995 39.8968C93.6995 41.8378 95.0175 43.24 96.8403 43.24C98.1092 43.24 99.1117 42.5838 99.8127 41.299L99.8898 41.1609L101.635 42.3973L101.558 42.5078C100.374 44.2693 99.2168 45.2778 96.8262 45.2847Z" fill="#0A0A0A"/>
<path d="M60.1683 52.1992H65.6785V57.8772H64.1572L63.8067 56.6753C63.0986 57.594 62.0471 58.0775 60.7501 58.0775C57.7777 58.0775 55.5343 55.7635 55.5343 52.6896C55.5343 49.6226 57.8758 47.3086 60.9815 47.3086C63.0356 47.3086 64.7531 48.2549 65.5804 49.8506L65.6365 49.9542L63.9539 51.1561L63.8768 51.0111C63.2809 49.8644 62.2714 49.2635 60.9534 49.2635C59.1097 49.2635 57.7777 50.721 57.7777 52.6896C57.7777 54.6583 59.0255 56.026 60.8062 56.026C62.7481 56.026 63.2879 54.7481 63.4352 54.0366H60.1683V52.1992Z" fill="#0A0A0A"/>
<path fill-rule="evenodd" clip-rule="evenodd" d="M73.1587 53.5323L75.6615 57.8703H73.1307L70.7682 53.781H69.352V57.8703H67.1367V47.5089H71.6515C73.986 47.5089 75.4301 48.6556 75.4301 50.4999C75.4301 51.9298 74.666 52.9452 73.1587 53.5323ZM73.2148 50.645C73.2148 49.8575 72.682 49.4638 71.6445 49.4638H69.352V51.8262H71.6515C72.682 51.8262 73.2148 51.4324 73.2148 50.645Z" fill="#0A0A0A"/>
<path fill-rule="evenodd" clip-rule="evenodd" d="M81.5503 58.0775C78.5638 58.0775 76.1452 55.6668 76.1452 52.6896C76.1452 49.7124 78.5638 47.3086 81.5503 47.3086C84.5368 47.3086 86.9484 49.7124 86.9484 52.6896C86.9484 55.6668 84.5368 58.0775 81.5503 58.0775ZM84.7051 52.6896C84.7051 50.6933 83.4361 49.3533 81.5503 49.3533C79.6575 49.3533 78.3886 50.6933 78.3886 52.6896C78.3886 54.6928 79.6575 56.0329 81.5503 56.0329C83.4361 56.0329 84.7051 54.6928 84.7051 52.6896Z" fill="#0A0A0A"/>
<path d="M94.5618 47.5089H96.7772V53.9123C96.7772 56.4335 95.0806 58.0706 92.4447 58.0706C89.8087 58.0706 88.1052 56.4335 88.1052 53.9123V47.5089H90.3205V53.7188C90.3205 55.1902 91.0986 56.026 92.4447 56.026C93.7907 56.026 94.5618 55.1902 94.5618 53.7188V47.5089Z" fill="#0A0A0A"/>
<path fill-rule="evenodd" clip-rule="evenodd" d="M107.125 50.9351C107.125 53.0419 105.603 54.3543 103.15 54.3543H100.577V57.8703H98.3615V47.5089H103.15C105.596 47.5089 107.125 48.8214 107.125 50.9351ZM104.902 50.9351C104.902 49.9887 104.278 49.4914 103.094 49.4914H100.577V52.3788H103.094C104.278 52.3788 104.909 51.8745 104.909 50.9351H104.902Z" fill="#0A0A0A"/>
</g>
</g>
</svg>
